<?xml version="1.0" encoding="UTF-8"?><svg xmlns="http://www.w3.org/2000/svg" xmlns:xlink="http://www.w3.org/1999/xlink" viewBox="0 0 3272.62 1842"><defs><style>.cls-1{fill:url(#linear-gradient);mix-blend-mode:multiply;}.cls-2{isolation:isolate;}.cls-3{fill:url(#radial-gradient);}</style><radialGradient id="radial-gradient" cx="1636.31" cy="921" fx="1636.31" fy="921" r="1872.73" gradientUnits="userSpaceOnUse"><stop offset="0" stop-color="#ff7a9d"/><stop offset=".22" stop-color="#ba00ff"/><stop offset=".45" stop-color="#0400ff"/><stop offset=".66" stop-color="#006cff"/><stop offset=".86" stop-color="#00ffe5"/><stop offset=".89" stop-color="#00ffe0"/><stop offset=".91" stop-color="#00ffd4"/><stop offset=".94" stop-color="#00ffbf"/><stop offset=".97" stop-color="#00ffa2"/><stop offset="1" stop-color="#00ff7d"/><stop offset="1" stop-color="#00ff7c"/></radialGradient><linearGradient id="linear-gradient" x1="1636.31" y1="0" x2="1636.31" y2="1842" gradientUnits="userSpaceOnUse"><stop offset="0" stop-color="#0af"/><stop offset=".22" stop-color="#fff"/><stop offset=".8" stop-color="#fff"/><stop offset="1" stop-color="#0af"/></linearGradient></defs><g class="cls-2"><g id="Layer_2"><g id="_Layer_"><rect x="0" width="3272.62" height="1842"/><path class="cls-3" d="m3240.51,923.04h32.11v-3.07h-32.11l-5.97-136.7,38.08-3.33v-3.08l-38.34,3.35-17.86-135.67,56.2-9.91v-3.12l-56.73,10-29.63-133.59,86.36-23.14v-3.18l-87.15,23.35-41.15-130.51,95.57-34.79,32.72,103.79v-10.21l-29.84-94.63,29.84-10.86v-3.27l-30.88,11.24-55.87-134.86,86.75-40.45v-3.39l-88.05,41.06-67.41-129.48,85.99-49.65,69.46,133.42v-6.64l-66.81-128.32,30.16-17.41h-6.14l-25.54,14.75-9.39-14.75h-3.64l10.37,16.28-85.99,49.65L3073.63,0h-3.64l42.99,67.46-88.09,50.86-73.53-115.41,4.16-2.91h-5.35l-.56.4-.3-.4h-3.87l1.66,2.16-84.64,59.27-47.13-61.42h-3.87l48.49,63.18-85.47,59.85-71.95-93.76,34.88-29.26h-4.78l-32.07,26.91-24.66-26.91h-4.16l26.47,28.88-80.34,67.42-73.49-80.19,16.1-16.1h-4.34l-13.93,13.93-15.21-13.93h-4.55l17.58,16.1-74.31,74.31-73.24-67.1,19.56-23.31h-4.01l-17.9,21.33-27.79-21.33h-5.04l30.86,23.68-67.52,80.47-71.33-54.72,34.61-49.43h-3.75l-33.37,47.66L2171.98,0h-6.11l.92.48-52.42,90.79-71.4-37.16,25.23-54.11h-3.39l-24.62,52.81-74.37-30.8,8.01-22.01h-3.27l-7.63,20.95L1896.5,0h-10.21l75.61,23.84-35.75,98.22-67.82-21.37L1885.31,0h-3.18l-26.76,99.89-69.42-15.38,14.9-84.5h-3.12l-14.81,83.96-70.49-9.28,6.53-74.69h-3.08l-6.51,74.41-71.04-3.1V0h-3.07v71.31l-71.04,3.11-6.51-74.42h-3.08l6.53,74.68-70.49,9.29-14.81-83.97h-3.12l14.9,84.5-69.42,15.39L1391.49,0h-3.18l26.98,100.68-67.81,21.38-35.75-98.22L1387.34,0h-10.21l-66.45,20.96-7.63-20.96h-3.27l8.01,22-74.36,30.81-24.63-52.81h-3.39l25.23,54.11-71.39,37.16L1106.83.48l.92-.48h-6.13l-74.81,47.67L993.44,0h-3.75l34.61,49.42-71.33,54.73-67.52-80.47,30.86-23.68h-5.04l-27.79,21.33-17.9-21.33h-4.01l19.55,23.3-73.23,67.11-74.31-74.31,17.58-16.11h-4.54l-15.2,13.94-13.94-13.94h-4.34l16.1,16.1-73.48,80.2-80.35-67.42,26.47-28.88h-4.16l-24.66,26.91L541,0h-4.77l34.87,29.26-71.94,93.77-85.47-59.85L462.16,0h-3.87l-47.13,61.42L326.53,2.16l1.66-2.16h-3.87l-.3.4-.57-.4h-5.35l4.15,2.91-73.52,115.41-88.08-50.85L203.63,0h-3.64l-42,65.93L72,16.28,82.37,0h-3.64l-9.39,14.75L43.8,0h-6.14l30.15,17.41L0,147.66v6.64L70.46,18.94l85.99,49.65-67.4,129.49L0,156.55v3.39l87.75,40.92-55.86,134.87-31.89-11.61v3.27l30.84,11.22L0,436.4v10.21l33.72-106.96,95.58,34.79-41.14,130.5L0,481.33v3.18l87.35,23.41-29.61,133.6-57.74-10.18v3.12l57.2,10.09-17.86,135.67-39.35-3.44v3.08l39.07,3.42-5.96,136.71H0v3.07h33.11l5.97,136.71-39.08,3.42v3.08l39.34-3.44,17.87,135.67-57.21,10.09v3.12l57.73-10.18,29.62,133.59L0,1358.49v3.18l88.15-23.62,41.16,130.5-95.58,34.79L0,1396.39v10.21l30.84,97.8-30.84,11.22v3.27l31.88-11.61,55.87,134.87L0,1683.06v3.39l89.05-41.52,67.41,129.48-85.99,49.65L0,1688.72v6.63l67.81,130.24-28.42,16.41h6.14l23.81-13.74,8.76,13.74h3.64l-9.74-15.28,85.99-49.65,41.36,64.93h3.64l-42.35-66.46,88.09-50.86,73.53,115.4-2.73,1.91h7.89l-.89-1.15,84.64-59.27,46.36,60.42h3.87l-47.72-62.18,85.47-59.84,71.95,93.76-33.68,28.26h4.77l30.88-25.91,23.74,25.91h4.16l-25.56-27.88,80.34-67.42,73.49,80.19-15.11,15.11h4.34l12.93-12.93,14.11,12.93h4.54l-16.49-15.1,74.31-74.31,73.24,67.11-18.72,22.3h4.01l17.06-20.33,26.49,20.33h5.04l-29.56-22.68,67.52-80.47,71.33,54.72-33.91,48.42h3.75l32.67-46.66,73.25,46.66h7.06l52.12-90.27,71.4,37.16-24.76,53.11h3.39l24.16-51.8,74.36,30.8-7.65,21.01h3.27l7.26-19.95,63.28,19.95h10.21l-72.45-22.84,35.75-98.22,67.81,21.37-26.71,99.69h3.18l26.5-98.88,69.42,15.38-14.72,83.5h3.12l14.63-82.96,70.5,9.28-6.45,73.69h3.08l6.42-73.41,71.03,3.1v70.32h3.07v-70.31s71.03-3.11,71.03-3.11l6.42,73.42h3.08l-6.45-73.68,70.5-9.29,14.63,82.97h3.12l-14.72-83.49,69.42-15.4,26.5,98.89h3.18l-26.71-99.68,67.81-21.38,35.75,98.22-72.44,22.84h10.21l63.28-19.96,7.26,19.96h3.27l-7.64-21,74.36-30.8,24.16,51.81h3.39l-24.76-53.1,71.39-37.17,52.12,90.27h7.08l73.24-46.66,32.67,46.66h3.75l-33.9-48.42,71.32-54.73,67.52,80.47-29.56,22.68h5.04l26.49-20.33,17.06,20.33h4.01l-18.71-22.3,73.24-67.11,74.31,74.31-16.49,15.1h4.54l14.11-12.94,12.94,12.94h4.34l-15.1-15.1,73.48-80.2,80.34,67.41-25.55,27.89h4.16l23.73-25.92,30.89,25.92h4.77l-33.68-28.26,71.95-93.77,85.47,59.85-47.71,62.18h3.87l46.36-60.43,84.64,59.27-.89,1.16h7.89l-2.73-1.91,73.51-115.41,88.09,50.86-42.34,66.46h3.64l41.35-64.93,85.99,49.65-9.74,15.28h3.64l8.76-13.75,23.81,13.75h6.14l-28.41-16.4,66.8-128.34v-6.63l-69.46,133.44-85.99-49.65,67.4-129.49,88.05,41.06v-3.39l-86.75-40.45,55.86-134.87,30.89,11.24v-3.27l-29.83-10.86,29.83-94.62v-10.21l-32.71,103.78-95.58-34.79,41.14-130.51,87.15,23.35v-3.18l-86.35-23.14,29.62-133.6,56.73,10v-3.12l-56.2-9.91,17.85-135.67,38.35,3.35v-3.08l-38.08-3.33,5.96-136.71ZM1561.45,77.74l9.08,103.76-61.22,8.06-18.09-102.57,70.22-9.25Zm49.42,820l-52.53-44.08,4.04-4.41,48.49,48.49Zm-46.32-50.66l4.41-4.04,44.08,52.53-48.49-48.49Zm44.34,53.01l-56.17-39.33,3.64-4.75,52.53,44.08Zm-1.76,2.52l-59.38-34.28,3.21-5.05,56.17,39.33Zm-3.89,8.32l-66.23-17.75,1.79-5.71,64.44,23.45Zm-63.38-26.34l2.29-5.53,62.13,28.97-64.42-23.45Zm62.59,29.3l-67.53-11.91,1.29-5.84,66.24,17.75Zm-.8,9.15l-68.31,5.98-.26-5.98h68.57Zm-68.57-3.07l.26-5.98,68.37,5.98h-68.62Zm68.83,6.13l-67.53,11.91-.78-5.93,68.31-5.98Zm-68.31-15.16l.78-5.93,67.54,11.91-68.32-5.98Zm.44-18.56l-98.85-26.49,4.56-14.48,96.17,35-1.87,5.96Zm-.8,2.97l-1.35,6.1-100.79-17.77,3.28-14.82,98.85,26.49Zm-1.88,9.13l-.81,6.2-101.96-8.92,1.98-15.05,100.79,17.77Zm-1.08,9.25l-.27,6.25h-102.35l.66-15.17,101.96,8.92Zm-.27,9.32l.28,6.24-101.96,8.92-.67-15.16h102.35Zm.54,9.3l.82,6.2-100.79,17.77-1.99-15.05,101.96-8.92Zm1.35,9.22l1.35,6.1-98.85,26.49-3.29-14.82,100.79-17.77Zm2.14,9.07l1.88,5.96-96.17,35-4.57-14.47,98.85-26.49Zm.88-9.6l67.54-11.91-66.24,17.75-1.3-5.84Zm68.3-8.93l-64.41,23.44-1.8-5.7,66.22-17.74Zm1.1,2.87l-62.17,28.99-2.3-5.53,64.47-23.46Zm1.27,2.79l-59.38,34.28-2.77-5.3,62.15-28.98Zm-62.14-61.47l2.77-5.33,59.61,34.42-62.38-29.09Zm1.64-9.5l-88.63-51.17,8.15-12.8,83.83,58.7-3.35,5.27Zm-1.53,2.64l-2.89,5.56-92.76-43.25,7.01-13.48,88.64,51.17Zm-4.2,8.34l-2.39,5.77-96.17-35,5.8-14.02,92.76,43.25Zm-101.44-30.28l-96.32-35.06,9.33-22.53,92.9,43.32-5.91,14.27Zm-1.05,2.88l-4.64,14.73-99.01-26.53,7.32-23.26,96.32,35.06Zm-5.44,17.7l-3.34,15.08-100.94-17.8,5.28-23.81,99.01,26.53Zm-6.17,36.47l-.67,15.44h-102.5l1.06-24.37,102.11,8.93Zm-101.84-11.99l3.18-24.18,100.94,17.8-2.01,15.32-102.11-8.93Zm101.17,30.49l.68,15.43-102.11,8.93-1.07-24.36h102.5Zm.94,18.49l2.02,15.31-100.94,17.8-3.19-24.18,102.11-8.93Zm-101.41-76.72l-101.18-17.84,7.27-32.82,99.24,26.59-5.33,24.07Zm-.54,3.02l-3.21,24.45-102.34-8.95,4.38-33.33,101.17,17.84Zm-4.56,55.21l1.08,24.63-102.34,8.95-1.48-33.59h102.74Zm-102.73-3.07l1.47-33.59,102.34,8.95-1.07,24.64h-102.74Zm-1.32-36.91l-102.65-8.98,5.59-42.51,101.47,17.89-4.42,33.6Zm-.27,3.05l-1.48,33.86h-103.03l1.86-42.84,102.65,8.98Zm-1.48,36.93l1.49,33.85-102.65,8.98-1.87-42.83h103.03Zm1.75,36.91l4.43,33.6-101.47,17.89-5.6-42.51,102.65-8.98Zm3.05-.27l102.34-8.95,3.22,24.44-101.17,17.84-4.39-33.33Zm106.09,18.51l5.34,24.07-99.24,26.59-7.28-32.82,101.18-17.84Zm3.02-.53l100.94-17.8,3.35,15.08-99.01,26.53-5.29-23.81Zm105.09.25l4.65,14.73-96.32,35.06-7.34-23.26,99.01-26.53Zm5.69,17.61l5.92,14.27-92.9,43.32-9.34-22.53,96.32-35.06Zm2.88-1.05l96.17-35,2.4,5.77-92.76,43.25-5.81-14.02Zm99.86-26.45l2.89,5.54-88.64,51.17-7.01-13.46,92.76-43.25Zm4.42,8.2l3.36,5.27-83.84,58.7-8.16-12.8,88.64-51.17Zm2.66-1.53l59.38-34.28-56.16,39.32-3.22-5.04Zm61.15-31.77l-52.53,44.08-3.64-4.74,56.17-39.33Zm1.98,2.35l-48.49,48.49-4.04-4.41,52.54-44.08Zm2.34,1.97l-44.25,52.73-4.43-4.05,48.68-48.68Zm2.18,2.18l-39.33,56.17-4.75-3.64,44.08-52.53Zm-44.08-108.36l4.74-3.65,39.34,56.18-44.08-52.53Zm-1.97-2.35l-65.79-78.4,12.04-9.24,58.7,83.83-4.95,3.81Zm-2.35,1.97l-4.61,4.22-72.37-72.37,11.19-10.26,65.79,78.4Zm-6.78,6.39l-4.22,4.61-78.4-65.79,10.25-11.19,72.37,72.37Zm-6.19,6.96l-3.8,4.96-83.83-58.7,9.23-12.05,78.4,65.79Zm-90.15-55.5l-83.97-58.79,14.84-19.35,78.52,65.89-9.39,12.26Zm-1.76,2.51l-8.3,13.03-88.77-51.25,13.1-20.57,83.97,58.79Zm-9.82,15.67l-7.14,13.72-92.9-43.32,11.27-21.65,88.77,51.25Zm-102.82-30.89l-93.11-43.42,15.53-29.84,88.98,51.37-11.39,21.89Zm-1.3,2.78l-9.43,22.78-96.55-35.14,12.86-31.06,93.12,43.42Zm-10.48,25.66l-7.41,23.52-99.24-26.59,10.1-32.06,96.55,35.14Zm-109.61-3.87l-99.52-26.67,12.88-40.89,96.82,35.24-10.18,32.32Zm-.8,2.96l-7.33,33.08-101.47-17.89,9.28-41.86,99.52,26.67Zm-111.82,14.66l-101.81-17.95,11.28-50.93,99.86,26.76-9.34,42.12Zm-.54,3.02l-5.63,42.78-102.98-9.01,6.8-51.72,101.81,17.95Zm-7.77,92l1.88,43.1-102.98,9.01-2.29-52.11h103.39Zm-103.38-3.07l2.28-52.11,102.98,9.01-1.87,43.1h-103.39Zm-.51-55.44l-103.37-9.04,8.02-60.96,102.19,18.02-6.84,51.98Zm-.27,3.05l-2.29,52.38h-103.76l2.68-61.42,103.37,9.04Zm-2.29,55.45l2.3,52.38-103.37,9.04-2.69-61.42h103.76Zm2.56,55.44l6.85,51.98-102.19,18.02-8.03-60.95,103.37-9.04Zm3.05-.27l102.98-9.01,5.64,42.77-101.8,17.95-6.81-51.71Zm109.15,36.79l9.35,42.12-99.86,26.76-11.29-50.92,101.81-17.95Zm3.02-.53l101.47-17.89,7.34,33.08-99.52,26.67-9.29-41.86Zm109.6,18.16l10.19,32.31-96.82,35.24-12.89-40.89,99.52-26.67Zm2.96-.79l99.24-26.59,7.42,23.51-96.55,35.14-10.11-32.06Zm107.7-.19l9.44,22.78-93.12,43.42-12.87-31.06,96.55-35.14Zm10.73,25.56l11.39,21.87-88.98,51.37-15.53-29.82,93.12-43.42Zm2.78-1.3l92.9-43.32,7.13,13.7-88.77,51.25-11.27-21.63Zm101.56-26.96l8.3,13.02-83.97,58.79-13.11-20.57,88.77-51.25Zm10.06,15.54l9.4,12.25-78.52,65.89-14.85-19.35,83.97-58.79Zm2.51-1.76l83.84-58.7,3.81,4.96-78.4,65.79-9.24-12.04Zm89.61-51.39l4.22,4.61-72.37,72.37-10.26-11.19,78.4-65.79Zm6.38,6.77l4.63,4.23-65.79,78.4-11.21-10.27,72.37-72.37Zm6.98,6.21l4.96,3.8-58.7,83.83-12.05-9.23,65.79-78.4Zm7.47,5.57l5.27,3.36-51.17,88.63-12.8-8.15,58.7-83.83Zm1.76-2.51l39.33-56.17-34.28,59.38-5.05-3.21Zm0-171.7l5.04-3.22,34.28,59.38-39.33-56.16Zm-1.76-2.51l-58.7-83.83,12.8-8.16,51.17,88.63-5.27,3.36Zm-60.46-86.35l-58.79-83.97,20.56-13.11,51.25,88.77-13.02,8.3Zm-2.52,1.76l-12.25,9.4-65.89-78.52,19.35-14.85,58.79,83.97Zm-14.61,11.37l-11.38,10.44-72.48-72.48,17.98-16.48,65.89,78.52Zm-13.56,12.61l-10.43,11.39-78.52-65.89,16.47-17.98,72.48,72.48Zm-91.3-56.47l-78.7-66.04,22.7-24.8,72.65,72.65-16.65,18.18Zm-1.98,2.35l-15.01,19.56-84.16-58.93,20.46-26.67,78.7,66.04Zm-16.77,22.08l-13.24,20.8-88.97-51.37,18.06-28.36,84.16,58.93Zm-104.87-32.11l-89.23-51.52,23.03-36.16,84.4,59.1-18.2,28.58Zm-1.53,2.64l-15.65,30.07-93.38-43.54,19.8-38.05,89.23,51.52Zm-16.96,32.85l-12.96,31.31-96.82-35.24,16.4-39.61,93.38,43.54Zm-112.67-4.98l-97.15-35.36,19.95-48.19,93.7,43.69-16.51,39.86Zm-1.05,2.88l-12.96,41.15-99.86-26.76,15.67-49.75,97.15,35.36Zm-115.79,13.6l-100.23-26.86,18.48-58.64,97.5,35.49-15.76,50Zm-.8,2.96l-11.34,51.19-102.19-18.02,13.3-60.02,100.23,26.86Zm-116.55,32.64l-102.57-18.09,15.33-69.16,100.6,26.96-13.36,60.29Zm-.54,3.02l-8.06,61.22-103.76-9.08,9.24-70.23,102.57,18.09Zm-118.24,125.97h-104.53l3.49-80.15,104.13,9.11-3.1,71.04Zm6.15-70.77l103.76,9.08-2.69,61.69h-104.16l3.08-70.77Zm-6.16,73.84l3.11,71.03-104.13,9.11-3.5-80.14h104.53Zm3.07,0h104.16l2.7,61.69-103.76,9.08-3.09-70.77Zm.31-77.16l-104.13-9.11,10.47-79.54,102.94,18.15-9.28,70.5Zm-107.18-9.38l-104.44-9.14,11.7-88.87,103.25,18.21-10.5,79.8Zm-.27,3.06l-3.5,80.41h-104.84l3.9-89.55,104.44,9.14Zm-3.51,83.48l3.52,80.41-104.44,9.14-3.92-89.55h104.84Zm3.78,83.47l10.51,79.8-103.25,18.2-11.71-88.87,104.44-9.14Zm3.05-.27l104.13-9.11,9.29,70.49-102.94,18.15-10.48-79.53Zm107.18-9.38l103.76-9.08,8.06,61.22-102.57,18.09-9.25-70.23Zm112.35,55.17l13.37,60.28-100.61,26.96-15.34-69.15,102.57-18.09Zm3.02-.53l102.19-18.02,11.35,51.18-100.23,26.86-13.31-60.02Zm114.33,36.13l15.77,50-97.5,35.49-18.49-58.63,100.23-26.86Zm2.96-.79l99.86-26.76,12.97,41.14-97.15,35.36-15.69-49.75Zm113.88,17.27l16.52,39.86-93.7,43.69-19.97-48.19,97.15-35.36Zm2.88-1.05l96.82-35.24,12.97,31.31-93.38,43.54-16.41-39.61Zm111.09-1.15l15.65,30.05-89.23,51.52-19.8-38.03,93.38-43.54Zm17.18,32.72l18.21,28.57-84.4,59.1-23.04-36.15,89.23-51.52Zm2.66-1.53l88.98-51.37,13.25,20.79-84.16,58.93-18.07-28.35Zm103.98-28.06l15.01,19.56-78.7,66.03-20.47-26.67,84.16-58.93Zm16.98,21.91l16.66,18.17-72.65,72.65-22.71-24.79,78.7-66.03Zm2.35-1.97l78.52-65.89,10.44,11.38-72.48,72.48-16.48-17.97Zm91.12-52.34l11.4,10.45-65.88,78.52-18-16.48,72.48-72.48Zm13.75,12.42l12.26,9.39-58.79,83.97-19.35-14.84,65.88-78.52Zm14.77,11.16l13.03,8.3-51.25,88.77-20.57-13.1,58.79-83.97Zm15.68,9.83l13.7,7.13-43.32,92.9-21.63-11.26,51.25-88.77Zm1.53-2.66l51.17-88.63,5.55,2.88-43.25,92.76-13.46-7Zm52.7-91.29l34.28-59.37-28.97,62.13-5.31-2.76Zm0-181.2l5.3-2.76,28.98,62.14-34.28-59.38Zm-1.53-2.66l-51.17-88.63,13.46-7.01,43.25,92.76-5.54,2.89Zm-52.71-91.29l-51.25-88.77,21.63-11.27,43.32,92.9-13.7,7.14Zm-52.78-91.43l-51.37-88.98,29.81-15.53,43.42,93.11-21.87,11.39Zm-2.66,1.53l-20.79,13.25-58.93-84.16,28.35-18.07,51.37,88.97Zm-23.31,15.01l-19.56,15.01-66.04-78.7,26.67-20.47,58.93,84.16Zm-21.91,16.98l-18.17,16.66-72.65-72.65,24.79-22.71,66.04,78.7Zm-92.99-58.16l-72.85-72.85,31.6-28.98,66.23,78.93-24.99,22.89Zm-2.17,2.17l-22.88,24.99-78.93-66.23,28.97-31.61,72.85,72.85Zm-24.86,27.34l-20.62,26.88-84.4-59.1,26.09-34.02,78.93,66.23Zm-107.54-33.97l-84.69-59.3,31.75-41.38,79.19,66.45-26.26,34.23Zm-1.76,2.51l-23.18,36.39-89.53-51.69,28.02-43.99,84.69,59.3Zm-24.71,39.03l-19.92,38.29-93.7-43.69,24.09-46.28,89.54,51.69Zm-116.4-6.7l-94.04-43.85,28.39-54.55,89.86,51.88-24.21,46.52Zm-1.3,2.78l-20.06,48.44-97.5-35.49,23.52-56.8,94.04,43.85Zm-120.45,11.9l-97.87-35.62,27.1-65.44,94.4,44.02-23.63,57.05Zm-1.06,2.88l-18.56,58.89-100.6-26.96,21.29-67.56,97.87,35.62Zm-122.13,31.14l-100.97-27.05,24.12-76.51,98.22,35.75-21.37,67.81Zm-.8,2.96l-15.38,69.42-102.94-18.15,17.36-78.32,100.96,27.05Zm-121.34,50.73l-103.25-18.21,19.39-87.51,101.27,27.13-17.41,78.58Zm-106.27-18.74l-103.45-18.24,21.44-96.72,101.47,27.19-19.45,87.77Zm-.54,3.02l-11.73,89.14-104.65-9.16,12.93-98.22,103.45,18.24Zm-12,92.19l-3.92,89.82h-105.05l4.32-98.97,104.65,9.16Zm-3.92,92.89l3.93,89.82-104.65,9.16-4.33-98.97h105.05Zm4.19,92.87l11.74,89.13-103.45,18.24-12.94-98.22,104.65-9.16Zm12.27,92.16l19.46,87.77-101.47,27.19-21.45-96.72,103.45-18.24Zm3.02-.53l103.25-18.21,17.43,78.58-101.27,27.13-19.41-87.51Zm106.27-18.74l102.94-18.15,15.4,69.42-100.96,27.05-17.37-78.32Zm119.12,54.23l21.39,67.81-98.22,35.75-24.13-76.5,100.96-27.05Zm2.96-.79l100.61-26.96,18.57,58.89-97.87,35.62-21.3-67.55Zm120.22,34.82l23.64,57.05-94.4,44.02-27.11-65.44,97.87-35.62Zm2.88-1.05l97.5-35.49,20.07,48.44-94.04,43.85-23.53-56.8Zm118.87,15.73l24.21,46.5-89.86,51.88-28.39-54.53,94.04-43.85Zm2.78-1.3l93.7-43.69,19.93,38.26-89.54,51.69-24.09-46.27Zm115.15-2.77l23.19,36.38-84.69,59.3-28.04-43.99,89.54-51.69Zm24.94,38.9l26.26,34.23-79.19,66.45-31.75-41.38,84.69-59.3Zm2.51-1.76l84.4-59.1,20.63,26.88-78.93,66.23-26.1-34.02Zm107-29.86l22.89,24.98-72.85,72.85-28.97-31.6,78.93-66.23Zm25.05,27.15l25,22.9-66.23,78.93-31.62-28.97,72.85-72.85Zm2.17-2.17l72.65-72.65,18.2,16.66-66.04,78.7-24.8-22.72Zm93.19-54.01l19.56,15.01-58.93,84.16-26.67-20.46,66.04-78.7Zm22.07,16.77l20.8,13.24-51.37,88.97-28.36-18.06,58.93-84.16Zm23.45,14.78l21.87,11.38-43.42,93.11-29.82-15.52,51.37-88.97Zm24.65,12.68l22.78,9.43-35.14,96.54-31.06-12.86,43.42-93.11Zm1.3-2.78l43.32-92.9,14.27,5.91-35.06,96.32-22.53-9.33Zm44.62-95.68l43.25-92.76,5.77,2.39-35,96.17-14.02-5.8Zm44.55-95.54l28.98-62.14-23.45,64.43-5.53-2.29Zm0-189.31l5.53-2.3,23.48,64.5-29.01-62.2Zm-1.3-2.78l-43.25-92.76,14.03-5.81,35,96.17-5.78,2.4Zm-44.55-95.54l-43.32-92.9,22.53-9.34,35.06,96.32-14.27,5.92Zm-44.62-95.68l-43.42-93.12,31.06-12.87,35.14,96.55-22.78,9.44Zm-44.72-95.89l-43.54-93.38,39.61-16.42,35.24,96.82-31.31,12.98Zm-2.78,1.29l-30.05,15.65-51.52-89.23,38.02-19.8,43.54,93.38Zm-32.72,17.18l-28.57,18.21-59.1-84.4,36.15-23.04,51.52,89.23Zm-31.09,19.97l-26.88,20.63-66.23-78.93,34.01-26.1,59.1,84.4Zm-95.08-60.65l-66.45-79.2,41.38-31.76,59.3,84.69-34.22,26.27Zm-2.35,1.97l-31.8,29.16-73.11-73.11,38.46-35.24,66.45,79.2Zm-33.97,31.32l-29.15,31.81-79.19-66.45,35.23-38.47,73.11,73.11Zm-110.69-36.61l-79.49-66.7,41.53-45.33,73.37,73.37-35.41,38.66Zm-1.98,2.35l-31.91,41.6-85-59.52,37.42-48.78,79.49,66.7Zm-33.68,44.11l-28.17,44.22-89.86-51.88,33.03-51.85,85,59.52Zm-120.68-9.2l-90.2-52.08,38.05-59.75,85.32,59.74-33.17,52.08Zm-1.53,2.64l-28.51,54.79-94.4-44.02,32.71-62.84,90.2,52.08Zm-125.69,9.47l-94.73-44.17,37.04-71.17,90.52,52.26-32.83,63.08Zm-1.3,2.78l-27.2,65.69-98.22-35.75,30.69-74.12,94.73,44.17Zm-128.31,28.89l-98.52-35.86,34.29-82.81,95.02,44.31-30.8,74.36Zm-1.06,2.88l-24.2,76.76-101.26-27.13,26.95-85.48,98.52,35.86Zm-128.43,48.83l-101.47-27.19,29.78-94.48,98.71,35.93-27.03,85.74Zm-104.43-27.98l-101.5-27.2,32.62-103.48,98.75,35.94-29.86,94.74Zm-.8,2.96l-21.49,96.98-103.49-18.25,23.48-105.93,101.5,27.2Zm-22.03,100l-12.96,98.49-104.69-9.16,14.16-107.58,103.49,18.25Zm-13.23,101.55l-4.33,99.24h-105.09l4.73-108.4,104.69,9.16Zm-4.33,102.31l4.34,99.24-104.69,9.16-4.74-108.4h105.09Zm4.6,102.3l12.97,98.48-103.49,18.25-14.17-107.57,104.69-9.16Zm13.5,101.51l21.5,96.98-101.51,27.2-23.49-105.93,103.49-18.25Zm22.29,99.94l29.88,94.73-98.75,35.94-32.63-103.48,101.5-27.2Zm2.96-.79l101.47-27.19,27.04,85.74-98.71,35.93-29.79-94.48Zm104.43-27.98l101.27-27.13,24.21,76.76-98.52,35.86-26.96-85.48Zm126.52,52.51l30.81,74.36-95.02,44.31-34.31-82.81,98.52-35.86Zm2.88-1.05l98.22-35.75,27.22,65.69-94.73,44.18-30.7-74.11Zm126.73,32.72l32.84,63.07-90.52,52.26-37.05-71.15,94.73-44.17Zm2.78-1.3l94.4-44.02,28.52,54.77-90.2,52.08-32.71-62.83Zm124.44,13.41l33.19,52.07-85.32,59.74-38.06-59.74,90.2-52.08Zm2.66-1.53l89.86-51.88,28.18,44.21-85,59.52-33.04-51.85Zm119.8-5.15l31.92,41.59-79.49,66.7-37.43-48.78,85-59.52Zm33.89,43.95l35.42,38.65-73.37,73.37-41.54-45.33,79.49-66.7Zm2.35-1.97l79.2-66.45,29.15,31.8-73.11,73.11-35.24-38.45Zm110.51-32.49l31.82,29.15-66.45,79.2-38.47-35.24,73.1-73.11Zm34.17,31.13l34.23,26.26-59.3,84.69-41.38-31.75,66.45-79.2Zm1.97-2.35l66.23-78.93,26.89,20.62-59.1,84.41-34.01-26.1Zm95.63-56.54l28.58,18.2-51.52,89.23-36.17-23.03,59.1-84.41Zm31.24,19.74l30.06,15.64-43.54,93.38-38.03-19.79,51.52-89.23Zm32.84,16.95l31.31,12.96-35.24,96.82-39.61-16.4,43.54-93.38Zm34.19,14.02l32.32,10.18-26.67,99.52-40.89-12.89,35.24-96.82Zm1.05-2.88l35.14-96.54,23.52,7.41-26.59,99.24-32.06-10.1Zm36.19-99.42l35.06-96.32,14.73,4.64-26.53,99.01-23.26-7.33Zm36.11-99.21l35-96.17,5.96,1.88-26.49,98.85-14.48-4.56Zm36.05-99.05l23.46-64.44-17.75,66.24-5.71-1.8Zm0-196l5.7-1.8,17.75,66.24-23.45-64.44Zm-1.05-2.88l-35-96.17,14.48-4.56,26.49,98.85-5.96,1.88Zm-36.05-99.05l-35.06-96.32,23.26-7.34,26.53,99.01-14.73,4.65Zm-36.11-99.2l-35.14-96.55,32.06-10.11,26.59,99.24-23.51,7.42Zm-36.19-99.43l-35.24-96.82,40.89-12.89,26.67,99.52-32.32,10.19Zm-36.29-99.7l-35.36-97.15,49.75-15.69,26.76,99.86-41.15,12.97Zm-2.88,1.04l-39.86,16.52-43.69-93.7,48.19-19.97,35.36,97.15Zm-42.64,17.81l-38.26,19.92-51.69-89.53,46.26-24.09,43.69,93.7Zm-40.93,21.46l-36.38,23.19-59.3-84.69,43.98-28.03,51.69,89.53Zm-97.44-64.01l-59.52-85,51.84-33.04,51.88,89.86-44.21,28.18Zm-2.52,1.76l-41.59,31.92-66.7-79.49,48.77-37.43,59.52,85Zm-43.95,33.89l-38.65,35.42-73.37-73.37,45.33-41.54,66.7,79.49Zm-114.19-40.12l-73.65-73.65,52.22-47.86,66.95,79.79-45.52,41.72Zm-2.18,2.17l-41.71,45.53-79.79-66.95,47.85-52.23,73.65,73.65Zm-43.69,47.88l-37.59,48.99-85.32-59.74,43.12-56.2,79.79,66.95Zm-125.42-12.51l-85.62-59.95,48.83-63.65,80.07,67.19-43.28,56.41Zm-1.77,2.51l-38.2,59.97-90.52-52.26,43.1-67.66,85.62,59.95Zm-131.38,6.17l-90.79-52.42,48.15-75.6,85.88,60.13-43.24,67.89Zm-1.53,2.65l-37.17,71.41-95.02-44.31,41.39-79.52,90.79,52.42Zm-134.96,25.8l-95.2-44.39,45.74-87.88,90.98,52.52-41.52,79.75Zm-1.3,2.78l-34.4,83.06-98.72-35.93,37.91-91.52,95.21,44.39Zm-135.99,46.08l-98.75-35.94,41.52-100.24,95.24,44.41-38.01,91.77Zm-101.63-36.99l-98.56-35.87,45.12-108.94,95.06,44.32-41.62,100.49Zm-1.06,2.88l-32.7,103.73-101.31-27.15,35.45-112.46,98.56,35.87Zm-33.5,106.7l-23.54,106.19-103.29-18.21,25.52-115.12,101.31,27.15Zm-24.07,109.21l-14.19,107.84-104.48-9.14,15.39-116.92,103.29,18.21Zm-14.47,110.9l-4.74,108.67h-104.88l5.14-117.81,104.48,9.14Zm-4.74,111.74l4.75,108.67-104.48,9.14-5.15-117.81h104.88Zm5.01,111.72l14.2,107.84-103.29,18.21-15.4-116.91,104.48-9.14Zm14.73,110.86l23.55,106.19-101.31,27.14-25.53-115.12,103.29-18.21Zm24.34,109.16l32.71,103.73-98.56,35.87-35.46-112.46,101.31-27.14Zm33.76,106.62l41.63,100.49-95.06,44.33-45.13-108.94,98.56-35.87Zm2.88-1.05l98.75-35.94,38.02,91.77-95.24,44.41-41.53-100.24Zm101.63-36.99l98.71-35.93,34.41,83.06-95.2,44.4-37.92-91.52Zm134.41,49.91l41.52,79.74-90.97,52.52-45.75-87.87,95.2-44.4Zm2.78-1.3l95.02-44.31,37.17,71.39-90.8,52.42-41.39-79.5Zm133.72,29.75l43.25,67.88-85.88,60.13-48.16-75.59,90.79-52.42Zm2.66-1.53l90.52-52.26,38.21,59.96-85.62,59.95-43.11-67.65Zm130.49,10.22l43.29,56.41-80.07,67.19-48.84-63.64,85.62-59.95Zm2.51-1.76l85.32-59.74,37.59,48.99-79.79,66.95-43.12-56.19Zm124.88-8.4l41.72,45.52-73.65,73.65-47.86-52.22,79.79-66.95Zm43.88,47.69l45.54,41.72-66.95,79.79-52.24-47.86,73.65-73.65Zm2.17-2.17l73.37-73.37,38.67,35.42-66.7,79.49-45.34-41.54Zm114.39-35.97l41.59,31.92-59.52,85-48.78-37.43,66.7-79.49Zm44.11,33.68l44.22,28.16-51.88,89.86-51.86-33.03,59.52-85Zm1.76-2.51l59.3-84.69,36.39,23.17-51.69,89.53-44-28.02Zm98.34-59.97l38.27,19.92-43.69,93.7-46.27-24.08,51.69-89.53Zm41.05,21.22l39.86,16.51-35.36,97.15-48.19-19.95,43.69-93.7Zm42.74,17.56l41.15,12.97-26.76,99.86-49.75-15.68,35.36-97.15Zm44.11,13.77l42.12,9.33-17.95,101.81-50.93-11.29,26.76-99.86Zm.79-2.96l26.67-99.52,33.08,7.33-17.89,101.47-41.86-9.27Zm27.46-102.49l26.59-99.24,24.07,5.33-17.84,101.18-32.82-7.27Zm27.38-102.2l26.53-99.01,15.08,3.34-17.8,100.95-23.81-5.28Zm27.32-101.97l26.49-98.85,6.1,1.35-17.77,100.79-14.82-3.28Zm27.28-101.82l17.75-66.25-11.91,67.53-5.84-1.29Zm0-201.18l5.86-1.3,11.95,67.78-17.81-66.49Zm-.79-2.96l-26.49-98.85,14.83-3.3,17.77,100.79-6.12,1.36Zm-27.28-101.81l-26.53-99.01,23.82-5.29,17.8,100.94-15.09,3.36Zm-27.32-101.97l-26.59-99.24,32.83-7.28,17.84,101.17-24.08,5.35Zm-27.38-102.2l-26.67-99.52,41.87-9.29,17.89,101.47-33.09,7.34Zm-27.46-102.49l-26.76-99.86,50.93-11.3,17.95,101.81-42.13,9.35Zm-27.55-102.82l-26.86-100.23,60.03-13.31,18.02,102.19-51.19,11.35Zm-2.97.79l-50,15.77-35.49-97.5,58.63-18.5,26.86,100.23Zm-52.89,16.81l-48.44,20.07-43.85-94.04,56.8-23.54,35.49,97.5Zm-51.23,21.36l-46.5,24.21-51.88-89.86,54.53-28.39,43.85,94.04Zm-99.91-68.3l-52.08-90.2,62.82-32.71,44.02,94.4-54.77,28.51Zm-2.67,1.53l-52.07,33.18-59.74-85.32,59.74-38.06,52.08,90.2Zm-54.59,34.94l-48.99,37.59-66.95-79.79,56.19-43.13,59.74,85.32Zm-117.91-44.54l-67.19-80.08,63.64-48.84,59.95,85.62-56.4,43.29Zm-2.36,1.97l-52.42,48.04-73.91-73.91,59.14-54.2,67.19,80.08Zm-54.6,50.2l-48.03,52.43-80.07-67.19,54.2-59.15,73.91,73.91Zm-130.45-16.73l-80.31-67.39,60.55-66.09,74.13,74.13-54.38,59.35Zm-1.98,2.35l-48.99,63.86-85.88-60.13,54.56-71.12,80.31,67.39Zm-137.38,1.97l-86.05-60.25,60.31-78.6,80.47,67.52-54.73,71.33Zm-1.77,2.51l-48.3,75.83-90.97-52.52,53.22-83.56,86.05,60.25Zm-141.93,21.77l-91.01-52.54,58.29-91.51,86.08,60.28-53.37,83.78Zm-1.54,2.65l-45.87,88.12-95.24-44.41,50.1-96.25,91.01,52.54Zm-143.89,42.41l-95.06-44.33,54.45-104.6,90.83,52.44-50.22,96.49Zm-97.84-45.62l-94.56-44.09,58.77-112.91,90.36,52.17-54.57,104.84Zm-1.3,2.78l-45.22,109.19-98.04-35.69,48.71-117.6,94.56,44.09Zm-146.15,72.46l-97.1-35.34,52.26-126.18,93.65,43.67-48.81,117.85Zm1.83,3.93l98.04,35.69-35.53,112.71-100.78-27,38.27-121.4Zm61.71,151.36l-25.57,115.39-102.75-18.12,27.54-124.27,100.78,27Zm-26.11,118.41l-15.42,117.18-103.94-9.09,16.61-126.21,102.75,18.12Zm-15.69,120.24l-5.15,118.07h-104.34l5.55-127.17,103.94,9.09Zm-5.16,121.14l5.16,118.07-103.94,9.09-5.56-127.17h104.34Zm5.42,121.13l15.43,117.18-102.75,18.12-16.62-126.2,103.94-9.09Zm15.96,120.2l25.59,115.38-100.78,27-27.56-124.27,102.75-18.12Zm26.38,118.35l35.55,112.71-98.04,35.68-38.28-121.4,100.78-27Zm-15.51,270.18l-93.65,43.67-52.27-126.17,97.1-35.34,48.82,117.85Zm-45.94-118.89l98.04-35.68,45.23,109.19-94.56,44.09-48.72-117.6Zm144.57,76.29l54.58,104.83-90.36,52.17-58.78-112.9,94.56-44.09Zm2.78-1.3l95.06-44.33,50.23,96.48-90.83,52.44-54.45-104.59Zm97.84-45.62l95.24-44.41,45.87,88.11-91.01,52.54-50.1-96.24Zm142.64,46.36l53.38,83.77-86.08,60.27-58.3-91.51,91.01-52.54Zm2.66-1.53l90.97-52.52,48.31,75.82-86.05,60.25-53.23-83.55Zm141.04,25.81l54.73,71.32-80.47,67.52-60.31-78.59,86.05-60.25Zm2.51-1.76l85.88-60.13,49,63.85-80.31,67.39-54.57-71.11Zm136.85,6.07l54.38,59.34-74.13,74.13-60.56-66.08,80.31-67.39Zm2.35-1.97l80.07-67.19,48.04,52.42-73.91,73.91-54.2-59.14Zm130.27-12.6l52.43,48.04-67.19,80.07-59.15-54.2,73.91-73.91Zm54.78,50.01l56.41,43.28-59.95,85.63-63.65-48.83,67.19-80.07Zm1.97-2.35l66.95-79.79,48.99,37.59-59.74,85.32-56.2-43.12Zm118.45-40.43l52.09,33.17-52.08,90.2-59.75-38.06,59.74-85.32Zm54.74,34.71l54.78,28.51-44.02,94.4-62.84-32.71,52.08-90.2Zm1.53-2.66l51.88-89.86,46.51,24.21-43.85,94.04-54.54-28.38Zm101.17-64.35l48.44,20.06-35.49,97.51-56.8-23.52,43.85-94.04Zm51.32,21.11l50,15.76-26.86,100.23-58.64-18.48,35.49-97.51Zm52.97,16.56l51.19,11.34-18.02,102.19-60.03-13.3,26.86-100.23Zm54.21,11.88l51.98,6.84-9.04,103.37-60.96-8.02,18.02-102.19Zm.53-3.02l17.95-101.81,42.78,5.63-9.01,102.99-51.72-6.8Zm18.49-104.83l17.89-101.47,33.6,4.42-8.98,102.64-42.51-5.59Zm18.43-104.49l17.84-101.18,24.45,3.21-8.95,102.35-33.33-4.38Zm18.37-104.2l17.8-100.95,15.32,2.01-8.93,102.11-24.18-3.18Zm18.33-103.97l17.77-100.79,6.2.81-8.92,101.95-15.05-1.98Zm18.3-103.81l11.91-67.54-5.98,68.32-5.93-.78Zm0-204.83l5.93-.79,5.98,68.31-11.91-67.53Zm-.53-3.02l-17.77-100.79,15.05-1.99,8.92,101.96-6.2.82Zm-18.3-103.81l-17.8-100.94,24.18-3.19,8.93,102.11-15.31,2.02Zm-18.33-103.96l-17.84-101.17,33.33-4.39,8.95,102.34-24.44,3.22Zm-18.37-104.19l-17.89-101.48,42.5-5.6,8.98,102.65-33.59,4.43Zm-18.43-104.5l-17.95-101.81,51.71-6.81,9.01,102.98-42.77,5.64Zm-18.48-104.83l-18.02-102.19,60.95-8.02,9.04,103.37-51.98,6.85Zm-39.66-207.25l18.09,102.57-60.29,13.37-26.96-100.6,69.16-15.34Zm-72.12,16.13l26.96,100.6-58.89,18.58-35.62-97.88,67.56-21.3Zm-34.82,120.22l-57.05,23.64-44.02-94.4,65.45-27.11,35.62,97.87Zm-72.42-198.98l35.75,98.22-65.69,27.22-44.17-94.73,74.12-30.71Zm-76.9,32l44.17,94.73-63.06,32.84-52.27-90.53,71.15-37.04Zm-21.55,129.1l-59.96,38.2-59.95-85.62,67.65-43.11,52.27,90.53ZM1104.17,2.01l52.42,90.79-67.88,43.25-60.13-85.88,75.59-48.17Zm-78.11,49.92l60.13,85.88-63.86,49-67.39-80.31,71.11-54.56Zm-6.08,136.84l-59.34,54.38-74.13-74.13,66.08-60.56,67.39,80.31ZM883.1,25.65l67.52,80.47-66.28,60.74-74.28-74.28,73.04-66.93Zm-.93,143.38l-60.73,66.29-80.47-67.52,66.92-73.05,74.28,74.28ZM731.41,18.27l74.31,74.31-67.1,73.24-80.5-67.55,73.3-80Zm-75.27,82.35l80.5,67.55-60.47,78.81-86.08-60.28,66.05-86.08Zm-82.7-69.39l80.35,67.42-66.21,86.29-85.92-60.16,71.78-93.56Zm-73.55,96.07l85.92,60.16-58.44,91.74-90.83-52.44,63.35-99.46Zm-87.98-61.6l85.47,59.85-63.49,99.68-90.36-52.17,68.39-107.36ZM324.76,4.67l84.64,59.27-68.53,107.58-89.49-51.67L324.76,4.67Zm-74.91,117.84l89.49,51.66-58.89,113.15-93.65-43.67,63.06-121.14Zm-90.74-52.39l88.09,50.86-63.18,121.38-92.18-42.99,67.28-129.25ZM34.77,336.77l55.75-134.62,92.18,42.99-52.36,126.42-95.58-34.79Zm97.4,38.72l97.1,35.34-38.35,121.65-99.81-26.74,41.06-130.25Zm-41.86,133.21l99.81,26.74-27.6,124.53-101.76-17.94,29.55-133.33Zm-30.09,136.36l101.76,17.94-16.65,126.47-102.94-9.01,17.82-135.41Zm-18.1,138.47l102.94,9.01-5.56,127.43H36.18l5.95-136.44Zm-5.96,139.51h103.33l5.57,127.44-102.94,9.01-5.96-136.44Zm6.22,139.5l102.94-9.01,16.65,126.47-101.76,17.94-17.83-135.4Zm18.36,138.43l101.76-17.94,27.61,124.53-99.81,26.74-29.57-133.33Zm30.35,136.3l99.81-26.74,38.36,121.65-97.1,35.34-41.07-130.25Zm-56.34,168.97l95.58-34.79,52.37,126.42-92.18,42.99-55.77-134.62Zm124.34,266.65l-67.29-129.24,92.18-42.99,63.19,121.37-88.09,50.86Zm27.68-173.53l93.65-43.67,58.9,113.14-89.49,51.66-63.07-121.14Zm137.98,238.98l-73.38-115.18,89.49-51.66,68.54,107.58-84.64,59.27Zm87.15-61.03l-68.4-107.35,90.36-52.17,63.51,99.67-85.47,59.85Zm24.62-161.05l90.83-52.44,58.45,91.73-85.92,60.16-63.36-99.45Zm136.91,195.51l-71.79-93.55,85.92-60.16,66.22,86.29-80.34,67.42Zm16.64-155.47l86.08-60.27,60.47,78.8-80.5,67.55-66.06-86.08Zm141.33,168.42l-73.31-79.99,80.5-67.55,67.11,73.23-74.31,74.31Zm9.54-149.51l80.47-67.52,60.74,66.28-74.28,74.28-66.93-73.03Zm142.15,142.13l-73.05-66.93,74.28-74.28,66.29,60.74-67.52,80.47Zm69.49-82.82l-66.09-60.56,74.13-74.13,59.35,54.38-67.39,80.31Zm73.46,56.54l-71.12-54.56,67.39-80.31,63.86,48.99-60.13,85.88Zm78.12,49.92l-75.6-48.16,60.13-85.88,67.89,43.24-52.42,90.79Zm53.95-93.45l-67.67-43.1,59.95-85.62,59.97,38.2-52.26,90.52Zm73.81,38.58l-71.16-37.04,52.26-90.52,63.07,32.83-44.17,94.73Zm76.89,31.99l-74.11-30.69,44.17-94.73,65.69,27.2-35.75,98.22Zm36.8-101.11l-65.44-27.1,44.02-94.4,57.05,23.63-35.62,97.87Zm70.44,22.35l-67.56-21.29,35.62-97.87,58.89,18.56-26.96,100.6Zm72.12,16.13l-69.16-15.33,26.96-100.6,60.29,13.36-18.09,102.57Zm73.25,9.78l-70.23-9.24,18.09-102.57,61.22,8.06-9.08,103.76Zm73.82,3.36l-70.77-3.08,9.08-103.76,61.69,2.69v104.15Zm0-107.22l-61.42-2.68,9.04-103.37,52.38,2.28v103.77Zm0-106.83l-52.11-2.27,9.01-102.99,43.1,1.87v103.38Zm0-106.45l-42.83-1.86,8.98-102.64,33.85,1.47v103.03Zm0-106.1l-33.59-1.46,8.95-102.35,24.63,1.07v102.74Zm0-105.81l-24.37-1.06,8.93-102.11,15.43.67v102.5Zm0-105.57l-15.16-.66,8.92-101.96,6.24.27v102.34Zm0-105.41l-5.98-.26,5.98-68.31v68.57Zm0-138.88l-5.98-68.31,5.98-.26v68.57Zm0-71.64l-6.24.28-8.92-101.96,15.16-.67v102.35Zm0-105.42l-15.43.68-8.93-102.11,24.37-1.07v102.5Zm0-105.57l-24.63,1.08-8.95-102.34,33.59-1.48v102.74Zm0-105.81l-33.85,1.49-8.98-102.65,42.83-1.87v103.03Zm0-106.1l-43.1,1.88-9.01-102.98,52.11-2.29v103.39Zm0-106.46l-52.38,2.3-9.04-103.37,61.42-2.69v103.76Zm0-106.83l-61.69,2.7-9.08-103.76,70.77-3.1v104.16Zm1602.17,741.43h-103.32l-5.57-127.43,102.93-9.01,5.96,136.44Zm-857.67,3.07h104.16l-3.09,70.77-103.76-9.08,2.69-61.69Zm-2.69-64.76l103.76-9.08,3.1,70.76h-104.16l-2.7-61.69Zm109.92,64.76h104.52l-3.5,80.15-104.12-9.11,3.1-71.04Zm0-3.07l-3.11-71.03,104.12-9.11,3.51,80.14h-104.52Zm93.3-163.27l103.25-18.2,11.7,88.87-104.44,9.14-10.5-79.8Zm7.45,80.07l-104.12,9.11-9.29-70.49,102.95-18.15,10.47,79.54Zm-107.18,9.38l-103.76,9.08-8.06-61.22,102.56-18.09,9.26,70.23Zm-314.08,73.82l-1.88-43.1,102.98-9.01,2.29,52.11h-103.39Zm103.38,3.07l-2.28,52.11-102.98-9.01,1.87-43.1h103.39Zm-6.34-110.49l102.19-18.02,8.02,60.96-103.37,9.04-6.85-51.98Zm3.79,52.25l-102.98,9.01-5.64-42.77,101.81-17.95,6.81,51.71Zm-312.74,55.17l-1.08-24.63,102.34-8.95,1.48,33.58h-102.74Zm102.73,3.07l-1.47,33.59-102.34-8.95,1.07-24.63h102.74Zm-3.1-73.58l101.47-17.89,5.6,42.51-102.65,8.98-4.43-33.6Zm1.37,33.86l-102.34,8.95-3.22-24.44,101.17-17.84,4.39,33.33Zm-207.51,58.2l102.11,8.93-3.18,24.19-100.94-17.8,2.01-15.32Zm-2.02-55.36l100.94-17.8,3.19,24.18-102.11,8.93-2.02-15.31Zm2.29,52.3l.67-15.43h102.5l-1.06,24.37-102.11-8.93Zm.67-18.5l-.68-15.43,102.11-8.93,1.07,24.36h-102.5Zm100.47-55.16l-5.34-24.07,99.24-26.59,7.28,32.82-101.18,17.84Zm-3.02.53l-100.94,17.8-3.35-15.08,99.01-26.53,5.29,23.81Zm-204.76,36.1l-1.35-6.1,98.85-26.49,3.29,14.82-100.79,17.77Zm101.32-14.75l1.99,15.05-101.96,8.92-.82-6.2,100.79-17.77Zm-171.07,36.34h68.57l-.26,5.98-68.31-5.98Zm68.04,9.03l-.78,5.94-67.6-11.92,68.38,5.98Zm-68.3-15.16l67.52-11.91.79,5.93-68.3,5.98Zm.27,3.06l68.3-5.98.26,5.98h-68.56Zm67.6-27.59l-1.88-5.96,96.17-35,4.57,14.48-98.85,26.49Zm-.88,9.6l-67.53,11.91,66.24-17.75,1.29,5.84Zm-68.34,8.95l64.46-23.46,1.8,5.71-66.26,17.75Zm-1.01-2.9l62.13-28.97,2.3,5.52-64.42,23.45Zm-1.3-2.78l59.37-34.28,2.77,5.3-62.13,28.97Zm1.28,29.72l64.44,23.45-2.29,5.53-62.15-28.98Zm60.85,31.76l-2.76,5.31-59.38-34.28,62.13,28.97Zm-60.05-34.71l66.49,17.82-1.8,5.73-64.69-23.54Zm1.06-2.89l67.51,11.9-1.29,5.84-66.22-17.74Zm68.39,21.5l98.85,26.49-4.56,14.5-96.17-35,1.88-5.98Zm.8-2.97l1.34-6.1,100.79,17.77-3.28,14.82-98.85-26.49Zm1.88-9.12l.81-6.2,101.96,8.92-1.98,15.05-100.79-17.77Zm1.09-9.26l.27-6.24h102.35l-.66,15.16-101.96-8.92Zm.27-9.31l-.28-6.24,101.96-8.92.67,15.16h-102.35Zm97.78-54.87l-4.65-14.73,96.32-35.06,7.34,23.26-99.01,26.53Zm-5.69-17.62l-5.92-14.27,92.9-43.32,9.34,22.53-96.32,35.06Zm-2.88,1.05l-96.17,35-2.4-5.77,92.76-43.25,5.81,14.02Zm-99.86,26.45l-2.89-5.54,88.63-51.17,7.01,13.46-92.76,43.25Zm-4.42-8.2l-3.36-5.27,83.83-58.7,8.16,12.8-88.64,51.17Zm-2.66,1.53l-59.37,34.28,56.16-39.32,3.22,5.04Zm-61.15,31.78l52.53-44.08,3.65,4.74-56.18,39.34Zm-1.96-2.36l48.48-48.48,4.04,4.41-52.53,44.08Zm-2.17-2.17l44.07-52.53,4.41,4.04-48.49,48.49Zm-2.36-1.97l39.33-56.18,4.75,3.64-44.08,52.54Zm2.36,53.85l48.49,48.49-4.41,4.04-44.08-52.53Zm41.73,54.5l-4.74,3.64-39.34-56.18,44.08,52.53Zm-39.56-56.68l52.53,44.08-4.04,4.41-48.49-48.49Zm1.98-2.35l56.17,39.33-3.64,4.75-52.53-44.08Zm1.76-2.52l59.39,34.29-3.21,5.05-56.18-39.33Zm62.04,35.82l88.64,51.17-8.15,12.8-83.84-58.7,3.35-5.27Zm1.54-2.66l2.88-5.54,92.76,43.25-7,13.47-88.64-51.18Zm4.18-8.32l2.39-5.77,96.17,35-5.8,14.02-92.76-43.25Zm101.44,30.28l96.32,35.06-9.33,22.53-92.9-43.32,5.91-14.27Zm1.05-2.86l4.64-14.75,99.01,26.53-7.33,23.28-96.32-35.06Zm5.44-17.72l3.34-15.08,100.94,17.8-5.28,23.81-99.01-26.53Zm107.31,3.25l101.18,17.84-7.27,32.82-99.24-26.59,5.33-24.07Zm.54-3.02l3.22-24.45,102.34,8.95-4.38,33.34-101.18-17.84Zm108.61-15.23l102.65,8.98-5.59,42.51-101.47-17.89,4.42-33.6Zm.27-3.06l1.48-33.85h103.03l-1.86,42.83-102.65-8.98Zm1.48-36.92l-1.49-33.85,102.65-8.98,1.87,42.83h-103.03Zm97.79-91.96l-9.35-42.12,99.86-26.76,11.3,50.92-101.81,17.95Zm-3.02.53l-101.47,17.89-7.34-33.08,99.52-26.67,9.29,41.86Zm-109.6-18.16l-10.19-32.32,96.82-35.24,12.9,40.89-99.52,26.67Zm-2.96.79l-99.24,26.59-7.42-23.52,96.55-35.14,10.11,32.06Zm-107.7.19l-9.44-22.77,93.12-43.42,12.87,31.06-96.55,35.14Zm-10.73-25.56l-11.39-21.86,88.97-51.37,15.53,29.81-93.11,43.42Zm-2.78,1.3l-92.9,43.32-7.13-13.7,88.77-51.25,11.27,21.63Zm-101.57,26.96l-8.3-13.02,83.97-58.79,13.11,20.57-88.77,51.25Zm-10.06-15.54l-9.4-12.25,78.52-65.89,14.85,19.35-83.97,58.79Zm-2.51,1.76l-83.83,58.7-3.81-4.96,78.4-65.79,9.24,12.04Zm-89.61,51.39l-4.22-4.61,72.37-72.37,10.26,11.19-78.4,65.79Zm-6.39-6.78l-4.61-4.22,65.79-78.4,11.19,10.26-72.37,72.37Zm-6.96-6.19l-4.96-3.8,58.7-83.83,12.05,9.23-65.79,78.4Zm-7.45-5.56l-5.29-3.36,51.17-88.63,12.82,8.16-58.7,83.83Zm-1.76,2.51l-39.48,56.39,34.41-59.61,5.07,3.22Zm-.02,171.69l-5.04,3.22-34.29-59.39,39.33,56.17Zm1.76,2.51l58.7,83.83-12.8,8.16-51.17-88.63,5.27-3.36Zm2.52-1.76l4.96-3.81,65.79,78.4-12.04,9.24-58.7-83.83Zm7.31-5.78l4.61-4.22,72.37,72.37-11.19,10.26-65.79-78.4Zm6.78-6.39l4.22-4.61,78.4,65.79-10.25,11.19-72.37-72.37Zm6.19-6.96l3.8-4.96,83.84,58.7-9.24,12.05-78.4-65.79Zm90.15,55.5l83.97,58.79-14.84,19.35-78.52-65.89,9.4-12.26Zm1.77-2.51l8.3-13.03,88.77,51.25-13.1,20.57-83.97-58.79Zm9.83-15.68l7.13-13.7,92.9,43.32-11.26,21.63-88.77-51.25Zm102.8,30.91l93.12,43.42-15.52,29.82-88.98-51.37,11.38-21.87Zm1.3-2.78l9.43-22.78,96.55,35.14-12.86,31.06-93.12-43.42Zm10.48-25.65l7.41-23.53,99.24,26.59-10.11,32.08-96.55-35.14Zm109.62,3.85l99.52,26.67-12.89,40.91-96.82-35.24,10.19-32.34Zm.8-2.96l7.33-33.08,101.47,17.89-9.28,41.86-99.52-26.67Zm111.82-14.66l101.8,17.95-11.28,50.92-99.86-26.76,9.34-42.12Zm.54-3.02l5.63-42.78,102.98,9.01-6.8,51.72-101.8-17.95Zm111.66-33.5l103.37,9.04-8.01,60.96-102.2-18.02,6.84-51.98Zm.27-3.06l2.29-52.38h103.76l-2.68,61.42-103.37-9.04Zm2.29-55.45l-2.3-52.38,103.37-9.04,2.69,61.42h-103.76Zm95.28-128.99l-13.37-60.28,100.6-26.96,15.34,69.16-102.56,18.09Zm-3.02.53l-102.19,18.02-11.35-51.18,100.23-26.86,13.32,60.02Zm-114.34-36.13l-15.77-50,97.5-35.49,18.5,58.63-100.23,26.86Zm-2.96.79l-99.86,26.76-12.98-41.15,97.15-35.36,15.69,49.75Zm-113.88-17.28l-16.52-39.85,93.7-43.69,19.96,48.19-97.15,35.36Zm-2.88,1.05l-96.82,35.24-12.97-31.3,93.38-43.54,16.41,39.6Zm-111.09,1.15l-15.65-30.05,89.23-51.52,19.8,38.03-93.38,43.54Zm-17.18-32.71l-18.21-28.57,84.4-59.1,23.04,36.15-89.23,51.52Zm-2.66,1.53l-88.97,51.37-13.25-20.79,84.16-58.93,18.07,28.35Zm-103.98,28.06l-15.01-19.56,78.7-66.04,20.47,26.67-84.16,58.93Zm-16.98-21.91l-16.66-18.18,72.64-72.65,22.71,24.79-78.7,66.04Zm-2.35,1.97l-78.52,65.89-10.44-11.39,72.47-72.47,16.48,17.98Zm-91.13,52.33l-11.39-10.43,65.88-78.52,17.98,16.48-72.48,72.48Zm-13.74-12.41l-12.26-9.4,58.79-83.97,19.35,14.84-65.89,78.52Zm-14.76-11.15l-13.05-8.31,51.25-88.77,20.59,13.11-58.79,83.97Zm-15.7-9.84l-13.7-7.13,43.32-92.9,21.63,11.26-51.25,88.77Zm-1.53,2.66l-51.17,88.63-5.54-2.88,43.25-92.76,13.46,7.01Zm-52.71,91.29l-34.28,59.38,28.98-62.14,5.31,2.76Zm0,181.2l-5.31,2.77-29.01-62.21,34.32,59.44Zm1.53,2.66l51.17,88.63-13.47,7.01-43.25-92.76,5.55-2.89Zm52.7,91.29l51.25,88.77-21.63,11.27-43.32-92.9,13.7-7.14Zm2.66-1.53l13.02-8.3,58.79,83.97-20.56,13.11-51.25-88.77Zm15.54-10.06l12.25-9.4,65.88,78.52-19.35,14.85-58.79-83.97Zm14.61-11.37l11.38-10.44,72.48,72.48-17.98,16.48-65.88-78.52Zm13.56-12.61l10.43-11.39,78.52,65.89-16.47,17.98-72.48-72.48Zm91.3,56.47l78.7,66.04-22.71,24.79-72.65-72.65,16.65-18.18Zm1.98-2.35l15-19.57,84.16,58.93-20.46,26.67-78.7-66.04Zm16.77-22.08l13.24-20.8,88.98,51.37-18.06,28.36-84.16-58.93Zm104.87,32.11l89.23,51.52-23.03,36.16-84.4-59.1,18.2-28.58Zm1.54-2.66l15.64-30.06,93.38,43.54-19.79,38.03-89.23-51.52Zm16.95-32.84l12.96-31.31,96.82,35.24-16.4,39.61-93.38-43.54Zm112.67,4.98l97.15,35.36-19.96,48.19-93.7-43.69,16.51-39.86Zm1.05-2.87l12.97-41.16,99.86,26.76-15.68,49.76-97.15-35.36Zm115.79-13.61l100.23,26.86-18.49,58.65-97.5-35.49,15.76-50.02Zm.8-2.96l11.34-51.19,102.2,18.02-13.3,60.02-100.23-26.86Zm116.56-32.63l102.56,18.08-15.33,69.16-100.6-26.96,13.36-60.28Zm.54-3.02l8.05-61.22,103.76,9.08-9.25,70.23-102.56-18.09Zm114.87-51.88l104.12,9.11-10.46,79.54-102.95-18.15,9.28-70.5Zm107.18,9.38l104.44,9.14-11.69,88.87-103.25-18.21,10.49-79.8Zm.27-3.06l3.51-80.41h104.84l-3.91,89.55-104.44-9.14Zm3.51-83.48l-3.52-80.41,104.44-9.14,3.92,89.55h-104.84Zm91.98-182.01l103.45-18.24,12.94,98.22-104.65,9.16-11.73-89.14Zm-.53-3.02l-19.47-87.77,101.46-27.19,21.45,96.72-103.45,18.24Zm-3.02.53l-103.25,18.21-17.43-78.58,101.27-27.14,19.41,87.51Zm-106.27,18.74l-102.95,18.15-15.39-69.42,100.96-27.05,17.38,78.32Zm-119.13-54.23l-21.38-67.81,98.22-35.75,24.13,76.51-100.96,27.05Zm-2.96.79l-100.6,26.96-18.58-58.89,97.88-35.62,21.3,67.56Zm-120.22-34.82l-23.63-57.04,94.4-44.02,27.11,65.44-97.88,35.62Zm-2.88,1.05l-97.5,35.49-20.07-48.43,94.04-43.85,23.53,56.8Zm-118.86-15.73l-24.21-46.5,89.86-51.88,28.39,54.53-94.04,43.85Zm-2.78,1.3l-93.7,43.69-19.92-38.26,89.53-51.69,24.09,46.26Zm-115.15,2.77l-23.19-36.38,84.69-59.3,28.03,43.99-89.53,51.69Zm-24.94-38.9l-26.27-34.23,79.19-66.45,31.76,41.38-84.69,59.3Zm-2.51,1.76l-84.4,59.1-20.63-26.88,78.93-66.23,26.1,34.01Zm-107.01,29.86l-22.89-24.99,72.85-72.85,28.97,31.6-78.93,66.23Zm-25.06-27.16l-24.99-22.88,66.23-78.93,31.61,28.97-72.85,72.85Zm-2.17,2.17l-72.64,72.64-18.18-16.65,66.04-78.7,24.79,22.71Zm-93.17,54.01l-19.56-15.01,58.93-84.16,26.67,20.46-66.04,78.7Zm-22.06-16.76l-20.81-13.25,51.37-88.97,28.37,18.07-58.93,84.16Zm-23.47-14.79l-21.87-11.38,43.42-93.11,29.82,15.52-51.37,88.98Zm-24.65-12.68l-22.78-9.43,35.14-96.55,31.06,12.86-43.42,93.12Zm-1.3,2.78l-43.32,92.9-14.27-5.91,35.06-96.32,22.53,9.33Zm-44.62,95.68l-43.25,92.76-5.77-2.39,35-96.17,14.02,5.8Zm-44.55,95.54l-28.98,62.15,23.45-64.44,5.53,2.29Zm0,189.31l-5.52,2.29-23.45-64.44,28.98,62.15Zm1.3,2.78l43.25,92.76-14.02,5.81-35-96.17,5.77-2.4Zm44.55,95.54l43.32,92.9-22.53,9.34-35.06-96.32,14.27-5.92Zm44.62,95.68l43.42,93.11-31.06,12.87-35.14-96.54,22.78-9.44Zm2.78-1.29l21.87-11.39,51.37,88.97-29.82,15.53-43.42-93.11Zm24.53-12.92l20.79-13.25,58.93,84.16-28.35,18.07-51.37-88.97Zm23.31-15.01l19.56-15.01,66.04,78.7-26.67,20.47-58.93-84.16Zm21.91-16.98l18.18-16.66,72.65,72.65-24.78,22.71-66.04-78.7Zm92.99,58.16l72.85,72.85-31.6,28.97-66.23-78.93,24.98-22.89Zm2.17-2.17l22.89-24.99,78.93,66.23-28.97,31.61-72.85-72.85Zm24.86-27.34l20.63-26.89,84.4,59.1-26.09,34.02-78.93-66.23Zm107.54,33.97l84.69,59.3-31.75,41.39-79.2-66.45,26.26-34.23Zm1.76-2.51l23.18-36.39,89.54,51.69-28.03,43.99-84.69-59.3Zm24.72-39.04l19.92-38.27,93.7,43.69-24.08,46.27-89.54-51.69Zm116.4,6.72l94.04,43.85-28.38,54.54-89.86-51.88,24.2-46.51Zm1.3-2.78l20.06-48.44,97.5,35.49-23.52,56.8-94.04-43.85Zm120.44-11.9l97.88,35.62-27.1,65.45-94.4-44.02,23.62-57.05Zm1.05-2.87l18.57-58.9,100.6,26.96-21.29,67.57-97.88-35.62Zm122.14-31.15l100.96,27.05-24.12,76.52-98.22-35.75,21.38-67.83Zm.8-2.96l15.38-69.42,102.95,18.15-17.37,78.32-100.96-27.05Zm121.35-50.73l103.25,18.21-19.4,87.51-101.27-27.14,17.42-78.58Zm106.27,18.74l103.45,18.24-21.44,96.72-101.46-27.19,19.46-87.77Zm.54-3.02l11.72-89.14,104.65,9.16-12.93,98.22-103.45-18.24Zm12-92.19l3.92-89.82h105.04l-4.31,98.97-104.65-9.16Zm3.92-92.89l-3.93-89.81,104.65-9.16,4.32,98.97h-105.04Zm90.54-200.78l103.49-18.25,14.17,107.57-104.68,9.16-12.97-98.49Zm-.53-3.02l-21.51-96.98,101.51-27.2,23.48,105.93-103.49,18.25Zm-22.3-99.95l-29.87-94.74,98.75-35.94,32.63,103.48-101.51,27.2Zm-2.96.79l-101.46,27.19-27.04-85.74,98.71-35.93,29.79,94.48Zm-104.43,27.98l-101.27,27.13-24.21-76.76,98.52-35.86,26.96,85.49Zm-126.52-52.52l-30.81-74.36,95.02-44.31,34.31,82.81-98.52,35.86Zm-2.88,1.05l-98.22,35.75-27.21-65.69,94.73-44.17,30.7,74.11Zm-126.73-32.72l-32.84-63.06,90.53-52.27,37.04,71.15-94.73,44.17Zm-2.78,1.3l-94.4,44.02-28.51-54.77,90.2-52.08,32.72,62.82Zm-124.45-13.41l-33.18-52.07,85.32-59.75,38.06,59.74-90.2,52.08Zm-2.66,1.53l-89.86,51.88-28.18-44.21,85-59.52,33.04,51.85Zm-119.79,5.15l-31.92-41.59,79.49-66.7,37.43,48.78-85,59.52Zm-33.89-43.95l-35.42-38.66,73.37-73.37,41.54,45.32-79.49,66.7Zm-2.35,1.97l-79.19,66.45-29.15-31.8,73.1-73.1,35.24,38.46Zm-110.52,32.48l-31.81-29.15,66.45-79.2,38.46,35.24-73.1,73.11Zm-34.15-31.12l-34.23-26.26,59.3-84.69,41.39,31.75-66.45,79.2Zm-1.97,2.35l-66.23,78.93-26.89-20.63,59.1-84.4,34.02,26.1Zm-95.62,56.55l-28.59-18.21,51.52-89.23,36.17,23.04-59.1,84.4Zm-31.25-19.75l-30.06-15.64,43.54-93.38,38.03,19.79-51.52,89.23Zm-32.84-16.95l-31.31-12.97,35.24-96.82,39.61,16.41-43.54,93.38Zm-34.19-14.02l-32.32-10.18,26.67-99.52,40.89,12.88-35.24,96.82Zm-1.05,2.88l-35.14,96.55-23.52-7.41,26.59-99.24,32.07,10.1Zm-36.19,99.43l-35.06,96.32-14.73-4.64,26.53-99.01,23.26,7.33Zm-36.11,99.2l-35,96.17-5.96-1.88,26.49-98.85,14.48,4.56Zm-36.05,99.05l-23.46,64.45,17.75-66.25,5.71,1.8Zm0,196l-5.7,1.8-17.75-66.24,23.45,64.43Zm1.05,2.88l35,96.17-14.47,4.57-26.49-98.85,5.96-1.89Zm36.05,99.05l35.06,96.32-23.26,7.34-26.53-99.01,14.73-4.65Zm36.11,99.21l35.14,96.54-32.06,10.11-26.59-99.24,23.51-7.42Zm36.19,99.42l35.24,96.82-40.89,12.9-26.67-99.52,32.32-10.19Zm2.89-1.04l31.3-12.97,43.54,93.38-39.61,16.41-35.24-96.82Zm34.08-14.26l30.06-15.65,51.52,89.23-38.03,19.8-43.55-93.38Zm32.72-17.18l28.57-18.21,59.1,84.41-36.16,23.04-51.52-89.23Zm31.09-19.97l26.88-20.63,66.23,78.93-34.01,26.11-59.1-84.41Zm95.08,60.65l66.45,79.19-41.38,31.76-59.3-84.68,34.22-26.27Zm2.35-1.97l31.8-29.15,73.11,73.11-38.45,35.24-66.45-79.2Zm33.98-31.32l29.14-31.81,79.2,66.45-35.24,38.46-73.11-73.11Zm110.69,36.61l79.49,66.7-41.53,45.34-73.37-73.37,35.42-38.66Zm1.98-2.35l31.91-41.6,85,59.52-37.42,48.78-79.49-66.7Zm33.68-44.11l28.17-44.22,89.86,51.88-33.03,51.85-85-59.52Zm120.68,9.2l90.2,52.08-38.05,59.75-85.33-59.74,33.17-52.08Zm1.54-2.66l28.51-54.77,94.4,44.02-32.71,62.83-90.2-52.08Zm125.69-9.46l94.73,44.17-37.03,71.16-90.53-52.27,32.83-63.07Zm1.3-2.78l27.2-65.69,98.22,35.75-30.7,74.12-94.73-44.17Zm128.31-28.89l98.52,35.86-34.3,82.81-95.02-44.31,30.8-74.36Zm1.05-2.87l24.2-76.78,101.27,27.14-26.95,85.5-98.52-35.86Zm128.43-48.85l101.46,27.19-29.78,94.49-98.71-35.93,27.03-85.75Zm104.43,27.98l101.51,27.2-32.62,103.49-98.75-35.94,29.86-94.75Zm.8-2.96l21.5-96.98,103.49,18.25-23.47,105.93-101.51-27.2Zm22.04-100l12.96-98.49,104.68,9.16-14.16,107.57-103.49-18.25Zm13.24-101.54l4.32-99.24h105.09l-4.73,108.4-104.68-9.16Zm4.33-102.31l-4.33-99.24,104.68-9.16,4.74,108.4h-105.09Zm88.94-219.56l103.3-18.21,15.39,116.91-104.48,9.14-14.21-107.84Zm-.53-3.02l-23.54-106.19,101.3-27.14,25.54,115.12-103.3,18.21Zm-24.33-109.16l-32.71-103.73,98.55-35.87,35.47,112.46-101.3,27.14Zm-33.76-106.62l-41.63-100.48,95.05-44.32,45.13,108.94-98.55,35.87Zm-2.88,1.05l-98.75,35.94-38.02-91.77,95.24-44.41,41.53,100.24Zm-101.63,36.99l-98.71,35.93-34.41-83.05,95.21-44.4,37.91,91.52Zm-134.41-49.91l-41.52-79.74,90.97-52.52,45.76,87.86-95.21,44.4Zm-2.78,1.3l-95.02,44.31-37.17-71.39,90.79-52.42,41.4,79.5Zm-133.71-29.75l-43.25-67.88,85.88-60.13,48.17,75.59-90.79,52.42Zm-2.66,1.53l-90.53,52.27-38.2-59.97,85.62-59.95,43.11,67.65Zm-130.49-10.22l-43.29-56.41,80.08-67.19,48.84,63.64-85.62,59.95Zm-2.51,1.76l-85.32,59.74-37.59-48.99,79.79-66.95,43.13,56.19Zm-124.89,8.4l-41.71-45.53,73.65-73.65,47.86,52.22-79.79,66.95Zm-43.89-47.7l-45.53-41.71,66.95-79.79,52.23,47.85-73.65,73.65Zm-2.17,2.17l-73.37,73.37-38.66-35.41,66.7-79.49,45.33,41.53Zm-114.37,35.98l-41.6-31.91,59.52-85,48.78,37.42-66.7,79.49Zm-44.1-33.67l-44.23-28.17,51.88-89.86,51.86,33.04-59.51,85Zm-1.76,2.51l-59.3,84.69-36.4-23.18,51.69-89.53,44,28.03Zm-98.35,59.97l-38.27-19.92,43.69-93.7,46.27,24.08-51.69,89.53Zm-41.05-21.22l-39.86-16.51,35.36-97.15,48.19,19.96-43.69,93.7Zm-42.74-17.56l-41.15-12.96,26.76-99.86,49.75,15.67-35.36,97.15Zm-44.11-13.76l-42.12-9.34,17.95-101.81,50.93,11.28-26.76,99.86Zm-.79,2.96l-26.67,99.52-33.08-7.33,17.89-101.47,41.86,9.28Zm-27.46,102.49l-26.59,99.24-24.07-5.33,17.84-101.17,32.82,7.27Zm-27.38,102.2l-26.53,99.01-15.08-3.34,17.8-100.95,23.81,5.28Zm-27.32,101.97l-26.49,98.85-6.1-1.34,17.77-100.79,14.82,3.29Zm-27.28,101.81l-17.75,66.23,11.91-67.52,5.84,1.29Zm0,201.19l-5.84,1.3-11.91-67.54,17.75,66.24Zm.79,2.96l26.49,98.85-14.82,3.29-17.77-100.79,6.1-1.35Zm27.28,101.82l26.53,99.01-23.81,5.29-17.8-100.95,15.08-3.35Zm27.32,101.97l26.59,99.24-32.82,7.28-17.84-101.17,24.07-5.34Zm27.39,102.2l26.67,99.52-41.86,9.28-17.89-101.47,33.08-7.34Zm27.46,102.49l26.76,99.86-50.92,11.3-17.95-101.81,42.12-9.34Zm2.97-.79l41.14-12.98,35.36,97.15-49.74,15.69-26.76-99.86Zm44.03-14.02l39.85-16.52,43.69,93.7-48.19,19.96-35.36-97.15Zm42.64-17.81l38.27-19.93,51.69,89.53-46.26,24.09-43.69-93.7Zm40.93-21.46l36.38-23.18,59.3,84.69-43.99,28.03-51.69-89.53Zm97.44,64.01l59.52,85-51.85,33.04-51.88-89.86,44.21-28.17Zm2.52-1.76l41.59-31.92,66.7,79.49-48.77,37.43-59.52-85Zm43.95-33.89l38.65-35.42,73.37,73.37-45.33,41.54-66.7-79.49Zm114.19,40.12l73.65,73.65-52.22,47.86-66.95-79.79,45.52-41.72Zm2.17-2.17l41.71-45.53,79.79,66.95-47.85,52.23-73.65-73.65Zm43.69-47.88l37.58-48.99,85.33,59.74-43.12,56.2-79.79-66.95Zm125.42,12.51l85.62,59.95-48.83,63.65-80.07-67.19,43.29-56.41Zm1.77-2.51l38.19-59.97,90.53,52.26-43.1,67.66-85.62-59.95Zm131.38-6.17l90.79,52.42-48.16,75.6-85.88-60.13,43.24-67.88Zm1.54-2.66l37.16-71.4,95.02,44.31-41.38,79.51-90.79-52.42Zm134.95-25.8l95.21,44.4-45.75,87.87-90.97-52.52,41.51-79.75Zm1.3-2.78l34.4-83.06,98.71,35.93-37.9,91.53-95.21-44.4Zm136-46.08l98.75,35.94-41.52,100.25-95.24-44.41,38.01-91.78Zm101.63,36.99l98.55,35.87-45.12,108.95-95.05-44.32,41.62-100.49Zm1.05-2.88l32.7-103.74,101.3,27.14-35.45,112.47-98.55-35.87Zm33.5-106.71l23.53-106.19,103.3,18.21-25.52,115.12-101.3-27.14Zm24.07-109.21l14.2-107.84,104.48,9.14-15.38,116.91-103.3-18.21Zm14.47-110.9l4.74-108.67h104.88l-5.14,117.81-104.48-9.14Zm4.75-111.74l-4.75-108.66,104.48-9.14,5.15,117.8h-104.88Zm87.1-238.31l102.75-18.12,16.62,126.2-103.94,9.09-15.43-117.18Zm-.53-3.02l-25.59-115.38,100.78-27,27.56,124.27-102.75,18.12Zm-26.38-118.35l-35.55-112.72,98.05-35.69,38.28,121.4-100.78,27Zm15.51-270.18l93.65-43.67,52.27,126.17-97.1,35.34-48.82-117.84Zm45.94,118.89l-98.05,35.69-45.23-109.18,94.56-44.09,48.72,117.59Zm-144.57-76.28l-54.58-104.83,90.36-52.17,58.78,112.9-94.56,44.09Zm-2.78,1.3l-95.05,44.32-50.23-96.47,90.83-52.44,54.45,104.59Zm-97.83,45.62l-95.24,44.41-45.88-88.1,91.01-52.55,50.11,96.24Zm-142.65-46.35l-53.38-83.77,86.09-60.28,58.3,91.51-91.01,52.55Zm-2.66,1.53l-90.97,52.52-48.31-75.82,86.05-60.25,53.23,83.55Zm-141.04-25.81l-54.73-71.33,80.47-67.52,60.31,78.59-86.05,60.25Zm-2.51,1.76l-85.88,60.13-49-63.86,80.31-67.39,54.57,71.11Zm-136.85-6.08l-54.38-59.34,74.13-74.13,60.56,66.08-80.31,67.39Zm-2.35,1.97l-80.08,67.19-48.03-52.43,73.91-73.91,54.2,59.14Zm-130.28,12.6l-52.43-48.03,67.19-80.08,59.15,54.19-73.91,73.91Zm-54.78-50.01l-56.41-43.29,59.95-85.62,63.65,48.83-67.19,80.07Zm-1.97,2.35l-66.95,79.79-48.99-37.59,59.74-85.32,56.2,43.12Zm-118.45,40.44l-52.09-33.18,52.07-90.2,59.76,38.05-59.74,85.33Zm-54.74-34.72l-54.78-28.5,44.02-94.4,62.83,32.71-52.08,90.2Zm-1.53,2.66l-51.88,89.86-46.51-24.21,43.85-94.04,54.54,28.38Zm-101.17,64.35l-48.44-20.06,35.49-97.5,56.8,23.52-43.85,94.04Zm-51.32-21.11l-50.01-15.76,26.86-100.23,58.64,18.49-35.49,97.5Zm-52.97-16.56l-51.19-11.34,18.02-102.19,60.02,13.3-26.86,100.23Zm-54.21-11.88l-51.98-6.84,9.04-103.37,60.95,8.02-18.02,102.19Zm-.53,3.02l-17.95,101.81-42.77-5.63,9.01-102.98,51.71,6.8Zm-18.48,104.83l-17.89,101.47-33.6-4.42,8.98-102.65,42.51,5.59Zm-18.43,104.5l-17.84,101.17-24.44-3.21,8.95-102.34,33.33,4.38Zm-18.37,104.19l-17.8,100.94-15.31-2.01,8.93-102.11,24.18,3.18Zm-18.33,103.97l-17.77,100.8-6.2-.81,8.92-101.96,15.05,1.98Zm-18.31,103.81l-11.91,67.53,5.98-68.31,5.93.78Zm0,204.83l-5.93.78-5.98-68.31,11.91,67.53Zm.53,3.02l17.77,100.79-15.05,1.99-8.92-101.96,6.2-.82Zm18.3,103.81l17.8,100.95-24.18,3.19-8.93-102.11,15.31-2.02Zm18.33,103.97l17.84,101.18-33.33,4.39-8.95-102.35,24.45-3.22Zm18.37,104.2l17.89,101.47-42.51,5.6-8.98-102.64,33.6-4.43Zm18.42,104.49l17.95,101.81-51.72,6.81-9.01-102.99,42.77-5.64Zm18.49,104.83l18.02,102.19-60.96,8.03-9.04-103.37,51.98-6.85Zm3.02-.53l51.19-11.35,26.86,100.23-60.02,13.31-18.02-102.19Zm54.15-12.14l50-15.77,35.49,97.51-58.63,18.49-26.86-100.23Zm52.88-16.81l48.43-20.07,43.85,94.04-56.8,23.53-35.49-97.51Zm51.22-21.36l46.5-24.22,51.88,89.86-54.53,28.39-43.85-94.04Zm99.92,68.3l52.08,90.2-62.83,32.71-44.02-94.4,54.77-28.52Zm2.66-1.53l52.08-33.18,59.74,85.32-59.74,38.06-52.08-90.2Zm54.59-34.94l48.98-37.6,66.95,79.79-56.2,43.12-59.74-85.32Zm117.91,44.54l67.19,80.07-63.64,48.84-59.95-85.62,56.41-43.29Zm2.35-1.97l52.42-48.04,73.91,73.91-59.14,54.2-67.19-80.07Zm54.59-50.21l48.03-52.43,80.07,67.19-54.19,59.15-73.91-73.91Zm130.45,16.73l80.31,67.39-60.55,66.09-74.13-74.13,54.37-59.35Zm1.98-2.35l48.99-63.86,85.88,60.13-54.56,71.12-80.31-67.39Zm137.39-1.97l86.05,60.25-60.3,78.6-80.47-67.52,54.72-71.33Zm1.77-2.51l48.3-75.82,90.97,52.52-53.22,83.55-86.05-60.25Zm141.92-21.77l91.01,52.54-58.29,91.51-86.09-60.28,53.36-83.78Zm1.54-2.66l45.87-88.11,95.24,44.41-50.1,96.24-91.01-52.54Zm143.89-42.4l95.05,44.32-54.45,104.6-90.83-52.44,50.23-96.48Zm97.83,45.62l94.56,44.09-58.77,112.91-90.36-52.17,54.57-104.84Zm1.3-2.78l45.22-109.19,98.05,35.69-48.71,117.6-94.56-44.09Zm146.15-72.46l97.1,35.34-52.26,126.18-93.65-43.67,48.82-117.85Zm-1.83-3.93l-98.05-35.69,35.54-112.72,100.78,27-38.27,121.4Zm-61.71-151.37l25.58-115.39,102.75,18.12-27.55,124.27-100.78-27Zm26.12-118.41l15.42-117.18,103.94,9.09-16.61,126.2-102.75-18.12Zm15.69-120.24l5.15-118.08h104.34l-5.55,127.17-103.94-9.09Zm5.16-121.15l-5.16-118.07,103.94-9.09,5.56,127.16h-104.34Zm204.5-139.49l-102.93,9-16.66-126.47,101.77-17.94,17.82,135.41Zm-18.35-138.43l-101.77,17.94-27.61-124.53,99.81-26.74,29.57,133.33Zm-30.36-136.3l-99.81,26.74-38.36-121.65,97.1-35.34,41.07,130.25Zm56.34-168.97l-95.58,34.79-52.38-126.41,92.19-42.99,55.77,134.61Zm-124.35-266.64l67.29,129.24-92.19,42.99-63.19-121.37,88.08-50.86Zm-27.68,173.53l-93.65,43.67-58.9-113.14,89.49-51.67,63.06,121.14ZM2948.86,4.67l73.38,115.18-89.49,51.67-68.54-107.58,84.65-59.27Zm-87.16,61.03l68.4,107.35-90.36,52.17-63.5-99.68,85.47-59.85Zm-24.62,161.05l-90.83,52.44-58.44-91.73,85.91-60.15,63.36,99.45Zm-136.9-195.52l71.79,93.55-85.91,60.16-66.22-86.29,80.34-67.42Zm-16.63,155.47l-86.09,60.28-60.48-78.81,80.51-67.55,66.06,86.08Zm-141.33-168.43l73.3,79.99-80.51,67.55-67.11-73.23,74.31-74.31Zm-9.55,149.52l-80.47,67.52-60.74-66.28,74.28-74.28,66.93,73.04Zm-142.14-142.13l73.05,66.92-74.28,74.28-66.29-60.73,67.52-80.47Zm-69.49,82.82l66.09,60.55-74.13,74.13-59.35-54.37,67.39-80.31Zm-73.47-56.54l71.12,54.56-67.39,80.31-63.86-48.99,60.13-85.88Zm-78.11-49.92l75.6,48.16-60.13,85.88-67.89-43.25,52.42-90.79Zm-53.95,93.45l67.66,43.1-59.95,85.62-59.98-38.2,52.27-90.53Zm-73.81-38.57l71.16,37.03-52.27,90.53-63.07-32.83,44.17-94.73Zm-76.9-32l74.12,30.7-44.17,94.73-65.69-27.2,35.75-98.22Zm-36.8,101.11l65.45,27.1-44.02,94.4-57.05-23.63,35.62-97.87Zm-70.44-22.35l67.56,21.29-35.62,97.88-58.89-18.57,26.96-100.6Zm-72.12-16.13l69.16,15.33-26.96,100.6-60.29-13.36,18.09-102.57Zm-73.25-9.78l70.23,9.24-18.08,102.57-61.22-8.05,9.08-103.76Zm-73.83-3.36l70.77,3.09-9.08,103.76-61.69-2.69v-104.16Zm0,107.23l61.42,2.68-9.04,103.37-52.38-2.29v-103.76Zm0,106.83l52.11,2.28-9.01,102.98-43.1-1.87v-103.39Zm0,106.46l42.84,1.86-8.98,102.65-33.85-1.48v-103.03Zm0,106.1l33.59,1.47-8.95,102.34-24.63-1.07v-102.74Zm0,105.81l24.37,1.06-8.93,102.11-15.43-.67v-102.5Zm0,105.57l15.16.66-8.92,101.96-6.24-.27v-102.35Zm0,105.42l5.98.26-5.98,68.31v-68.57Zm-.02,138.61l6,68.57-6,.27v-68.84Zm6.27,71.63l8.92,101.95-15.18.67v-102.35s6.26-.28,6.26-.28Zm9.19,105.01l8.93,102.11-24.38,1.07v-102.5s15.45-.68,15.45-.68Zm-15.45,106.25l24.65-1.08,8.95,102.35-33.6,1.47v-102.74Zm0,105.81l33.87-1.49,8.98,102.64-42.84,1.87v-103.03Zm43.11,104.21l9.01,102.99-52.12,2.28v-103.38s43.11-1.89,43.11-1.89Zm9.28,106.04l9.04,103.37-61.43,2.69v-103.76s52.38-2.29,52.38-2.29Zm-52.38,213.28v-104.15s61.69-2.7,61.69-2.7l9.08,103.76-70.77,3.09Zm73.83-3.36l-9.08-103.76,61.22-8.07,18.09,102.57-70.23,9.25Zm73.26-9.78l-18.09-102.57,60.28-13.37,26.96,100.6-69.15,15.34Zm72.12-16.13l-26.96-100.6,58.89-18.57,35.62,97.87-67.55,21.3Zm34.82-120.22l57.04-23.64,44.02,94.4-65.44,27.11-35.62-97.87Zm72.42,198.98l-35.75-98.22,65.69-27.21,44.17,94.73-74.11,30.7Zm76.89-31.99l-44.18-94.73,63.07-32.84,52.26,90.52-71.15,37.05Zm21.55-129.1l59.96-38.21,59.95,85.62-67.65,43.11-52.26-90.52Zm106.22,183.97l-52.42-90.79,67.88-43.25,60.13,85.88-75.59,48.16Zm78.11-49.92l-60.13-85.88,63.85-49,67.39,80.31-71.11,54.57Zm6.08-136.85l59.34-54.38,74.13,74.13-66.08,60.56-67.39-80.31Zm136.88,163.13l-67.52-80.47,66.28-60.74,74.28,74.28-73.04,66.93Zm.93-143.38l60.73-66.29,80.47,67.52-66.92,73.05-74.28-74.28Zm150.76,150.76l-74.31-74.31,67.1-73.24,80.5,67.55-73.3,80Zm75.28-82.35l-80.5-67.55,60.47-78.81,86.09,60.28-66.05,86.09Zm82.69,69.38l-80.34-67.41,66.21-86.3,85.91,60.16-71.78,93.56Zm73.55-96.07l-85.91-60.15,58.43-91.74,90.83,52.44-63.35,99.45Zm87.98,61.6l-85.47-59.85,63.49-99.68,90.36,52.17-68.38,107.36Zm87.16,61.03l-84.65-59.27,68.53-107.58,89.49,51.67-73.37,115.18Zm74.91-117.84l-89.49-51.67,58.89-113.15,93.65,43.67-63.06,121.15Zm90.74,52.39l-88.09-50.86,63.18-121.38,92.19,42.99-67.28,129.25Zm124.34-266.65l-55.76,134.62-92.19-42.99,52.37-126.42,95.58,34.79Zm-97.4-38.72l-97.1-35.34,38.35-121.66,99.81,26.74-41.06,130.25Zm41.86-133.22l-99.81-26.75,27.6-124.53,101.77,17.94-29.56,133.33Zm30.1-136.36l-101.77-17.94,16.65-126.47,102.93,9.01-17.81,135.4Zm18.09-138.46l-102.93-9.01,5.56-127.44h103.32l-5.95,136.44Z"/><rect class="cls-1" y="0" width="3272.62" height="1842"/></g></g></g></svg>