<svg width="526" height="526" viewBox="0 0 526 526" fill="none" xmlns="http://www.w3.org/2000/svg">
<path d="M261 266L262.149 18C397.76 18.6278 509 130.383 509 266C509 402.049 397.049 514 261 514L261 266Z" fill="#002E2B"/>
<path d="M263 266L261.851 514C126.24 513.372 15 401.617 15 266C15 129.951 126.951 18 263 18V266Z" fill="#002E2B"/>
<g filter="url(#filter0_i_2_293)">
<circle cx="263" cy="263" r="254" stroke="#00FF85" stroke-width="18"/>
</g>
<g filter="url(#filter1_i_2_293)">
<circle cx="263" cy="263" r="245" fill="#D9D9D9" fill-opacity="0.01"/>
</g>
<path d="M260.524 385.627C259.273 385.627 258.019 386.341 257.534 387.768C250.73 407.819 237.194 433.52 218.682 440.743C211.339 443.61 203.866 443.352 196.663 439.063C189.388 434.734 182.674 426.179 177.129 412.34C163.491 378.31 163.87 339.489 170.828 302.699C177.462 267.625 190.344 232.87 204.625 203.935C205.661 201.836 204.152 199.395 201.811 199.383L181.865 199.273C180.682 199.267 179.664 199.862 179.089 200.895L160.314 234.666C158.555 237.83 154.565 238.967 151.402 237.209C148.238 235.451 147.101 231.461 148.859 228.297L170.423 189.509H170.425C171.549 187.495 173.704 186.134 176.175 186.146L212.038 186.343C213.207 186.349 214.211 185.77 214.794 184.757C215.846 182.92 216.872 181.178 217.866 179.537C218.496 178.495 218.488 177.27 217.844 176.238C215.818 172.981 215.199 169.075 215.858 165.145C216.023 164.153 215.75 163.229 215.069 162.488L198.463 144.397C197.988 143.878 197.432 143.567 196.739 143.433L163.343 136.947C159.783 136.266 157.45 132.827 158.13 129.268C158.811 125.708 162.25 123.374 165.808 124.055L202.363 131.155C203.699 131.41 204.968 132.081 205.958 133.158L222.009 150.645L222.708 149.217C217.774 143.609 217.798 136.352 222.356 130.606C223.887 128.678 225.951 126.889 228.498 125.342C229.316 124.845 229.821 124.093 229.975 123.151C231.063 116.433 237.489 112.343 243.671 113.311C244.808 113.489 245.874 113.082 246.603 112.191C247.331 111.299 247.521 110.176 247.12 109.096C242.601 96.8948 235.609 89.8512 229.56 85.8215C227.578 84.5022 228.55 83.6859 230.324 84.58C248.339 93.6534 254.702 113.74 254.702 113.74C256.566 113.253 258.54 113.008 260.516 113.008C262.492 113.008 264.468 113.251 266.33 113.74C266.33 113.74 272.693 93.6514 290.708 84.58C292.483 83.6879 293.457 84.5002 291.473 85.8215C285.423 89.8512 278.431 96.8968 273.913 109.096C273.511 110.176 273.701 111.299 274.43 112.191C275.158 113.084 276.222 113.489 277.362 113.311C283.543 112.345 289.97 116.433 291.057 123.151C291.211 124.095 291.716 124.847 292.534 125.342C295.079 126.891 297.145 128.678 298.676 130.606C303.236 136.352 303.258 143.609 298.325 149.217L299.023 150.645L315.074 133.158C316.066 132.081 317.334 131.412 318.669 131.157L355.224 124.055C358.785 123.374 362.222 125.71 362.902 129.268C363.583 132.829 361.248 136.266 357.689 136.947L324.293 143.433C323.601 143.567 323.046 143.878 322.569 144.397L305.963 162.488C305.282 163.229 305.009 164.153 305.175 165.145C305.831 169.071 305.214 172.979 303.189 176.238C302.546 177.272 302.538 178.497 303.167 179.537C304.159 181.178 305.185 182.92 306.238 184.757C306.819 185.77 307.825 186.349 308.995 186.343L344.857 186.146C347.328 186.138 349.484 187.497 350.607 189.511H350.609L372.173 228.299C373.931 231.463 372.794 235.453 369.63 237.211C366.469 238.969 362.477 237.832 360.719 234.668L341.943 200.897C341.368 199.864 340.35 199.269 339.167 199.275L319.222 199.385C316.881 199.397 315.374 201.84 316.407 203.937C330.688 232.872 343.57 267.629 350.204 302.701C357.164 339.491 357.541 378.31 343.903 412.342C338.356 426.181 331.642 434.736 324.369 439.065C317.166 443.352 309.693 443.612 302.35 440.745C283.84 433.522 270.302 407.821 263.498 387.77C263.013 386.343 261.762 385.629 260.508 385.629H260.516L260.524 385.627Z" fill="#004F4B" stroke="#00B75B" stroke-width="5" stroke-miterlimit="10"/>
<path d="M185.935 294.463C185.139 297.99 184.398 301.543 183.722 305.114C177.169 339.749 176.724 376.07 189.302 407.46C193.709 418.459 198.493 424.928 203.341 427.814C211.906 432.911 221.041 425.151 227.129 417.797C234.513 408.873 241.052 396.137 245.655 382.002C246.114 380.589 245.557 379.09 244.283 378.323C210.403 357.867 195.909 327.172 192.15 294.797C191.743 291.288 186.714 291.021 185.935 294.465V294.463Z" fill="#00FF85"/>
<path d="M214.522 213.482L213.503 215.727C200.471 262.192 193.725 327.833 245.8 363.715C247.704 365.029 250.311 363.931 250.702 361.652C254.732 338.278 251.754 316.327 245.882 293.48C244.311 287.368 242.557 281.303 240.687 275.227L232.949 251.362C229.528 241.075 226.133 230.86 223.147 220.597C223.089 220.393 223.021 220.226 222.923 220.036C221.923 218.09 221.071 216.034 220.37 213.873C219.492 211.162 215.754 210.911 214.52 213.48L214.522 213.482Z" fill="#00FF85"/>
<path d="M288.289 182.455C286.535 182.146 284.942 181.581 283.551 183.138C282.8 183.976 282.559 185.058 282.88 186.138C285.798 195.982 287.094 207.725 280.922 215.729C276.38 221.619 269.27 224.695 262.366 226.677C261.235 227.01 259.999 227.042 258.778 226.703C251.898 224.792 244.625 221.561 240.128 215.727C232.883 206.332 235.927 191.79 239.805 181.21L234.899 182.078C233.571 182.312 232.581 183.298 232.342 184.623C229.931 197.894 231.009 207.931 235.24 215.226C239.699 222.918 248.028 227.95 259.766 230.868C260.289 230.998 260.766 230.998 261.289 230.868C273.024 227.95 281.353 222.918 285.814 215.226C290.271 207.538 291.229 196.806 288.293 182.457L288.289 182.455Z" fill="#00B75B"/>
<path d="M272.274 241.251C269.053 242.418 265.596 243.402 261.913 244.211C260.831 244.448 259.939 244.388 258.931 244.165C255.325 243.364 251.94 242.396 248.778 241.249C246.297 240.349 243.868 242.692 244.711 245.227C245.148 246.54 246.321 247.39 247.708 247.39H273.346C276.19 247.39 277.581 243.927 275.551 241.955C274.663 241.091 273.44 240.828 272.274 241.251Z" fill="#00B75B"/>
<path d="M260.612 297.817H260.438L260.524 298.2L260.612 297.817Z" fill="#00B75B"/>
<path d="M265.502 279.177H255.546C255.854 280.241 256.161 281.302 256.46 282.366C256.85 283.747 258.065 284.665 259.5 284.665H261.552C262.987 284.665 264.201 283.745 264.592 282.366C264.891 281.302 265.197 280.239 265.506 279.177H265.502Z" fill="#00B75B"/>
<path d="M271.284 260.539H249.764C250.121 261.639 250.477 262.737 250.83 263.836C251.255 265.164 252.441 266.028 253.836 266.028H267.212C268.608 266.028 269.793 265.164 270.218 263.836C270.572 262.737 270.927 261.637 271.284 260.539Z" fill="#00B75B"/>
<path d="M284.459 157.385L263.041 166.27C261.486 166.915 259.684 166.967 258.007 166.27L236.591 157.385C235.048 156.746 233.28 157.413 232.546 158.914L229.398 165.348C228.652 166.837 228.51 169.238 229.228 169.59C229.366 169.658 229.626 169.665 230.003 169.598L249.796 166.099C253.371 165.474 256.774 167.865 257.399 171.44C257.686 173.09 257.331 174.595 256.566 175.941C254.055 180.36 250.315 188.878 249.171 196.85C248.533 201.307 248.7 205.374 250.501 207.711C256.035 214.887 265.011 214.887 270.548 207.711C272.35 205.374 272.516 201.307 271.879 196.85C270.727 188.812 266.933 180.218 264.422 175.831C261.65 170.985 265.827 165.149 271.254 166.099L291.048 169.596C291.844 169.737 292.095 169.6 292.253 168.703C292.497 167.328 291.974 165.989 291.275 164.566L288.505 158.91C287.77 157.411 286.002 156.742 284.461 157.383L284.459 157.385Z" fill="#00FF85"/>
<path d="M275.396 382.002C279.998 396.137 286.539 408.873 293.922 417.797C300.007 425.153 309.142 432.913 317.709 427.814C322.557 424.928 327.339 418.459 331.748 407.46C344.326 376.072 343.881 339.751 337.329 305.114C336.654 301.541 335.913 297.988 335.115 294.461C334.337 291.017 329.307 291.284 328.902 294.795C325.144 327.17 310.651 357.867 276.769 378.323C275.497 379.092 274.939 380.591 275.398 382.002H275.396Z" fill="#00FF85"/>
<path d="M253.343 128.248C251.387 135.516 243.254 139.178 236.529 135.883C234.739 136.785 233.43 137.771 232.637 138.769C231.909 139.687 231.949 139.821 232.516 140.491C233.34 141.465 234.835 142.449 237.082 143.381L259.313 152.605C260.117 152.938 260.927 152.938 261.732 152.605L283.962 143.381C286.209 142.449 287.704 141.465 288.529 140.491C289.096 139.821 289.135 139.685 288.407 138.769C287.615 137.771 286.307 136.787 284.515 135.883C277.793 139.178 269.657 135.518 267.701 128.248C264.308 126.734 263.065 126.155 260.52 126.155C257.975 126.155 256.732 126.734 253.339 128.248H253.343Z" fill="#00FF85"/>
<path d="M286.72 255.539C282.792 267.096 278.533 280.558 275.471 292.3C269.422 315.488 266.25 337.891 270.346 361.652C270.739 363.931 273.344 365.027 275.248 363.716C327.317 327.837 320.583 262.19 307.548 215.729L306.528 213.482C305.296 210.915 301.556 211.164 300.678 213.875C299.977 216.038 299.123 218.094 298.123 220.042C298.025 220.232 297.959 220.4 297.899 220.603C294.534 232.167 290.622 243.746 286.79 255.3C286.762 255.384 286.742 255.456 286.72 255.539Z" fill="#00FF85"/>
<path d="M236.821 263.295C239.515 277.273 244.515 328.925 208.696 311.413C214.265 331.42 225.612 349.804 245.802 363.717C247.706 365.031 250.313 363.933 250.704 361.654C254.734 338.28 251.756 316.329 245.884 293.481C244.313 287.37 242.559 281.304 240.689 275.229L236.821 263.297V263.295Z" fill="#00B75B"/>
<path d="M284.23 263.295C281.535 277.273 276.535 328.925 312.354 311.413C306.785 331.42 295.439 349.806 275.248 363.717C273.344 365.031 270.737 363.933 270.346 361.654C266.316 338.28 269.294 316.329 275.166 293.481C276.737 287.37 278.491 281.304 280.361 275.229L284.23 263.297V263.295Z" fill="#00B75B"/>
<path d="M203.651 334.964C204.246 336.162 234.478 397.508 188.208 404.624C188.562 405.574 188.927 406.518 189.304 407.458C193.711 418.457 198.495 424.926 203.343 427.812C211.908 432.91 221.043 425.149 227.131 417.795C234.515 408.871 241.054 396.135 245.657 382C246.116 380.587 245.559 379.088 244.285 378.322C224.979 366.665 211.968 351.686 203.653 334.964H203.651Z" fill="#00B75B"/>
<path d="M317.399 334.964C316.805 336.162 286.573 397.508 332.842 404.624C332.488 405.574 332.123 406.518 331.746 407.458C327.339 418.457 322.555 424.926 317.707 427.812C309.142 432.91 300.007 425.149 293.92 417.795C286.535 408.871 279.996 396.135 275.394 382C274.935 380.587 275.491 379.088 276.765 378.322C296.071 366.665 309.082 351.686 317.397 334.964H317.399Z" fill="#00B75B"/>
<path d="M214.522 213.482L213.503 215.727C200.471 262.192 193.725 327.833 245.8 363.715C246.539 364.224 247.383 364.37 248.161 364.226C194.03 317.263 220.372 213.875 220.372 213.875C219.494 211.164 215.756 210.913 214.522 213.482Z" fill="#80FFBF"/>
<path d="M185.935 294.464C185.139 297.99 184.398 301.543 183.722 305.114C177.169 339.749 176.724 376.07 189.302 407.46C193.709 418.459 198.493 424.928 203.341 427.814C205.798 429.277 208.303 429.678 210.77 429.339C178.043 387.241 189.965 329.376 194.983 310.868C193.711 305.585 192.779 300.214 192.152 294.795C191.745 291.286 186.716 291.019 185.937 294.464H185.935Z" fill="#80FFBF"/>
<path d="M306.526 213.482L307.546 215.727C320.577 262.192 327.323 327.833 275.248 363.715C274.509 364.224 273.665 364.37 272.887 364.226C327.018 317.263 300.676 213.875 300.676 213.875C301.554 211.164 305.292 210.913 306.526 213.482Z" fill="#80FFBF"/>
<path d="M335.113 294.464C335.909 297.99 336.65 301.543 337.327 305.114C343.879 339.749 344.324 376.07 331.746 407.46C327.339 418.459 322.555 424.928 317.707 427.814C315.25 429.277 312.745 429.678 310.278 429.339C343.005 387.241 331.083 329.376 326.066 310.868C327.337 305.585 328.269 300.214 328.896 294.795C329.303 291.286 334.333 291.019 335.111 294.464H335.113Z" fill="#80FFBF"/>
<path d="M270.548 198.379C265.013 205.554 256.037 205.554 250.501 198.379C249.972 197.694 249.585 196.86 249.317 195.912C249.265 196.225 249.215 196.54 249.169 196.852C248.531 201.309 248.698 205.376 250.501 207.713C256.035 214.889 265.011 214.889 270.548 207.713C272.35 205.376 272.515 201.309 271.879 196.852C271.835 196.54 271.785 196.225 271.731 195.912C271.464 196.862 271.074 197.694 270.548 198.379Z" fill="#00B75B"/>
<path d="M239.322 167.951C234.19 168.847 235.939 158.273 246.924 161.674L236.589 157.387C235.046 156.748 233.278 157.415 232.544 158.916L229.396 165.35C228.65 166.839 228.508 169.24 229.226 169.592C229.364 169.66 229.624 169.667 230.001 169.6L239.32 167.953L239.322 167.951Z" fill="#00B75B"/>
<path d="M281.729 167.947C286.86 168.843 285.112 158.269 274.126 161.67L284.461 157.383C286.004 156.744 287.772 157.411 288.507 158.912L291.654 165.346C292.401 166.835 292.542 169.236 291.824 169.588C291.684 169.656 291.427 169.664 291.049 169.596L281.731 167.949L281.729 167.947Z" fill="#00B75B"/>
<path d="M276.433 136.757C256.882 153.832 245.726 136.428 245.726 136.428C242.832 137.442 239.537 137.36 236.529 135.885C234.739 136.787 233.43 137.773 232.637 138.771C231.909 139.689 231.949 139.823 232.516 140.493C233.34 141.467 234.835 142.451 237.082 143.383L259.313 152.606C260.117 152.94 260.927 152.94 261.732 152.606L283.962 143.383C286.209 142.451 287.704 141.467 288.529 140.493C289.096 139.823 289.135 139.687 288.407 138.771C287.615 137.773 286.307 136.789 284.515 135.885C281.884 137.174 279.036 137.398 276.428 136.759H276.429L276.433 136.757Z" fill="#00B75B"/>
<defs>
<filter id="filter0_i_2_293" x="0" y="0" width="526" height="530" filterUnits="userSpaceOnUse" color-interpolation-filters="sRGB">
<feFlood flood-opacity="0" result="BackgroundImageFix"/>
<feBlend mode="normal" in="SourceGraphic" in2="BackgroundImageFix" result="shape"/>
<feColorMatrix in="SourceAlpha" type="matrix" values="0 0 0 0 0 0 0 0 0 0 0 0 0 0 0 0 0 0 127 0" result="hardAlpha"/>
<feOffset dy="4"/>
<feGaussianBlur stdDeviation="2"/>
<feComposite in2="hardAlpha" operator="arithmetic" k2="-1" k3="1"/>
<feColorMatrix type="matrix" values="0 0 0 0 0 0 0 0 0 0 0 0 0 0 0 0 0 0 0.25 0"/>
<feBlend mode="normal" in2="shape" result="effect1_innerShadow_2_293"/>
</filter>
<filter id="filter1_i_2_293" x="18" y="18" width="490" height="494" filterUnits="userSpaceOnUse" color-interpolation-filters="sRGB">
<feFlood flood-opacity="0" result="BackgroundImageFix"/>
<feBlend mode="normal" in="SourceGraphic" in2="BackgroundImageFix" result="shape"/>
<feColorMatrix in="SourceAlpha" type="matrix" values="0 0 0 0 0 0 0 0 0 0 0 0 0 0 0 0 0 0 127 0" result="hardAlpha"/>
<feOffset dy="4"/>
<feGaussianBlur stdDeviation="22.5"/>
<feComposite in2="hardAlpha" operator="arithmetic" k2="-1" k3="1"/>
<feColorMatrix type="matrix" values="0 0 0 0 0 0 0 0 0 0 0 0 0 0 0 0 0 0 0.9 0"/>
<feBlend mode="normal" in2="shape" result="effect1_innerShadow_2_293"/>
</filter>
</defs>
</svg>
