<?xml version="1.0" encoding="UTF-8"?><svg id="Layer_2" xmlns="http://www.w3.org/2000/svg" viewBox="0 0 447.32 387.39"><defs><style>.cls-1{fill:#fff;fill-rule:evenodd;}</style></defs><g id="Layer_1-2"><path class="cls-1" d="m223.66,0L0,387.39h447.32L223.66,0Zm0,311c-48.84,0-92.62-25.79-122.33-66.58l.7-1.22c29.7-40.24,73.17-65.64,121.62-65.64s91.93,25.4,121.63,65.65l.7,1.21c-29.71,40.79-73.49,66.58-122.33,66.58Zm77.44-7.88c-23.01,20.39-49.39,31.99-77.44,31.99s-54.44-11.6-77.44-31.99c23.57,13.55,49.8,21.11,77.44,21.11s53.87-7.57,77.44-21.11Zm17.46-106.19c-27.77-20.7-60.22-32.6-94.91-32.6s-67.14,11.9-94.91,32.6L223.66,32.54l94.91,164.38ZM28.22,371.05l65.41-113.29c2.92,3.58,5.94,7.03,9.04,10.37l-51.87,89.85h345.73l-51.87-89.85c3.1-3.34,6.12-6.79,9.04-10.37l65.41,113.29H28.22Z"/><path class="cls-1" d="m223.66,189.39c-44.07,0-83.08,21.65-106.99,54.89,23.92,33.24,62.92,54.89,106.99,54.89s83.08-21.65,106.99-54.89c-23.91-33.24-62.92-54.89-106.99-54.89Zm40.56,43.04c0,22.39-18.16,40.56-40.56,40.56s-40.56-18.16-40.56-40.56c0-8.99,2.95-17.29,7.9-24.02,6.72-1.94,13.69-3.3,20.86-4.02,7.5.75,13.37,7.06,13.37,14.76,0,8.2-6.65,14.85-14.85,14.85s-14.49-6.3-14.84-14.19c-1.73,3.85-2.7,8.12-2.7,12.62,0,17.01,13.8,30.81,30.81,30.81s30.81-13.8,30.81-30.81c0-12.35-7.28-23.01-17.78-27.92,6.73.74,13.29,2.06,19.63,3.9,4.96,6.73,7.9,15.03,7.9,24.02Zm-30.96,1.67c4.38,0,7.93,3.55,7.93,7.92s-3.55,7.93-7.93,7.93-7.93-3.55-7.93-7.93,3.55-7.92,7.93-7.92Zm-98.24,10.17c9.2-10.61,20.28-19.54,32.71-26.3-1.22,4.67-1.88,9.56-1.88,14.6,0,19.66,9.83,37.02,24.83,47.46-21.88-6.4-41.11-18.99-55.66-35.77Zm177.29,0c-14.55,16.77-33.78,29.37-55.66,35.77,15-10.45,24.83-27.81,24.83-47.46,0-5.05-.66-9.94-1.88-14.6,12.43,6.76,23.51,15.69,32.71,26.3h0Z"/><path class="cls-1" d="m223.66,153.45c24.83,0,48.36,9.08,69.39,25.31l-69.39-120.19-69.39,120.19c21.03-16.23,44.56-25.31,69.39-25.31Z"/></g></svg>